<?xml version="1.0" encoding="utf-8"?>
<!-- Generator: Adobe Illustrator 24.0.0, SVG Export Plug-In . SVG Version: 6.00 Build 0)  -->
<svg version="1.1" xmlns="http://www.w3.org/2000/svg" xmlns:xlink="http://www.w3.org/1999/xlink" x="0px" y="0px"
	 viewBox="0 0 104.6 91.1" style="enable-background:new 0 0 104.6 91.1;" xml:space="preserve">
<style type="text/css">
	.st0{display:none;fill:#0C1B3D;stroke:#231F20;stroke-miterlimit:10;}
	.st1{fill:#FFFFFF;}
	.st2{display:none;}
	.st3{display:inline;fill:#FFFFFF;}
	.st4{display:inline;fill:none;stroke:#0C1B3D;stroke-miterlimit:10;}
	.st5{display:inline;fill:none;stroke:#CCFF00;stroke-miterlimit:10;}
	.st6{display:inline;fill:#FFFFFF;stroke:#231F20;stroke-miterlimit:10;}
	.st7{display:inline;}
	.st8{fill:#231F20;}
	.st9{fill:#0C1B3D;}
	.st10{fill:none;stroke:#0C1B3D;stroke-width:3;stroke-miterlimit:10;}
	.st11{display:none;fill:#0C1B3D;}
	.st12{fill:#CCFF00;}
	.st13{fill:none;stroke:#0C1B3D;stroke-width:13;stroke-miterlimit:10;}
	.st14{opacity:0.3;fill:#CCFF00;}
	.st15{opacity:0.6;fill:#CCFF00;}
	.st16{display:none;fill:#CCFF00;}
	.st17{opacity:0.3;fill:#15F4EE;}
	.st18{opacity:0.6;fill:#15F4EE;}
	.st19{fill:#15F4EE;}
	.st20{opacity:0.3;}
	.st21{opacity:0.6;}
	.st22{fill:#FF00FF;stroke:#000000;stroke-width:12;stroke-linecap:round;stroke-miterlimit:10;}
	.st23{opacity:0.5;fill:#542677;}
	.st24{opacity:0.75;fill:#542677;}
	.st25{fill:#542677;}
	.st26{opacity:0.5;fill:#CCFF00;}
	.st27{fill:#0C1B3D;stroke:#CCFF00;stroke-width:3;stroke-miterlimit:10;}
	.st28{opacity:0.8;fill:#FF00FF;}
	.st29{opacity:0.9;fill:#15F4EE;}
	.st30{opacity:0.9;}
	.st31{opacity:0.8;}
	.st32{fill:#FF00FF;}
	.st33{opacity:0.5;}
</style>
<g id="Layer_1">
</g>
<g id="Layer_9" class="st2">
</g>
<g id="Layer_2" class="st2">
</g>
<g id="Layer_3" class="st2">
</g>
<g id="Layer_7">
</g>
<g id="sun">
</g>
<g id="moon">
</g>
<g id="cart">
</g>
<g id="ham">
	<g>
		<g class="st30">
			<path class="st19" d="M39.2,58.6c14.8,0,29.5,0,44.3,0c3.7,0,4.7-0.8,5.5-4.5c2.4-10.6,4.8-21.2,7.2-31.9c1-4.5-0.4-6.3-4.9-6.3
				c0,0,0,0,0,0c-2.8,0-5.2,1.9-5.8,4.6l-6,26.1c-0.2,0.7-0.8,1.2-1.5,1.2H34.6c-0.8,0-1.4-0.5-1.6-1.3l-6.6-32.6
				c-0.1-0.5-0.2-1.1-0.4-1.9c-0.3-1.4-0.6-2.8-0.9-4.2c-0.2-0.8-0.3-1.8-0.8-2.3C23.9,5.2,23.2,5,22.4,5c-7,0-14.1,0-21.1,0
				C0.2,5,0,5.2,0,6.2C0.1,8.5,0,16,6.1,16c2.5,0,5,0,7.5,0c1.3,0,2.4,0.9,2.7,2.1c3.6,17.7,7.2,35.4,10.9,53.1
				c0.3,1.6-0.2,2.6-1.3,3.7c-2.7,2.6-3.7,5.7-2.6,9.4c1.1,3.5,3.3,5.7,6.9,6.5c4,0.9,7.3-0.5,9.7-3.7c2.3-3.1,2.3-6.6,0.6-10
				c-1.3-2.8-1.2-2.1,3.7-2.3c8.2-0.3,16.5-0.3,24.7,0c4.7,0.2,5.1-0.5,3.7,2.1c-3.1,5.9-0.3,12.4,6,13.9c3.9,0.9,8.5-1.2,10.3-4.7
				c2-3.8,1.1-9-2.1-11.5c-1.6-1.2-1.9-2.5-1.5-4.3c0.8-3.3-1.2-6-4.6-6c-13.8,0-27.5,0-41.3,0c-1.4,0-2.7,0-3.2-1.8
				C35.4,59.2,35.7,58.6,39.2,58.6z"/>
		</g>
		<g class="st31">
			<path class="st32" d="M47.2,53.6c14.8,0,29.5,0,44.3,0c3.7,0,4.7-0.8,5.5-4.5c2.4-10.6,4.8-21.2,7.2-31.9c1-4.5-0.4-6.3-4.9-6.3
				c0,0,0,0,0,0c-2.8,0-5.2,1.9-5.8,4.6l-6,26.1c-0.2,0.7-0.8,1.2-1.5,1.2H42.6c-0.8,0-1.4-0.5-1.6-1.3L34.4,8.9
				c-0.1-0.5-0.2-1.1-0.4-1.9c-0.3-1.4-0.6-2.8-0.9-4.2c-0.2-0.8-0.3-1.8-0.8-2.3C31.8,0.2,31.1,0,30.4,0c-7,0-14.1,0-21.1,0
				C8.2,0,7.9,0.2,8,1.2C8.1,3.5,8,11,14.1,11c2.5,0,5,0,7.5,0c1.3,0,2.4,0.9,2.7,2.1c3.6,17.7,7.2,35.4,10.9,53.1
				c0.3,1.6-0.2,2.6-1.3,3.7c-2.7,2.6-3.7,5.7-2.6,9.4c1.1,3.5,3.3,5.7,6.9,6.5c4,0.9,7.3-0.5,9.7-3.7c2.3-3.1,2.3-6.6,0.6-10
				c-1.3-2.8-1.2-2.1,3.7-2.3c8.2-0.3,16.5-0.3,24.7,0c4.7,0.2,5.1-0.5,3.7,2.1c-3.1,5.9-0.3,12.4,6,13.9c3.9,0.9,8.5-1.2,10.3-4.7
				c2-3.8,1.1-9-2.1-11.5c-1.6-1.2-1.9-2.5-1.5-4.3c0.8-3.3-1.2-6-4.6-6c-13.8,0-27.5,0-41.3,0c-1.4,0-2.7,0-3.2-1.8
				C43.4,54.2,43.7,53.6,47.2,53.6z"/>
		</g>
		<g>
			<path class="st9" d="M44.6,57.1c14,0,28,0,42.1,0c3.5,0,4.5-0.8,5.3-4.3c2.3-10.1,4.6-20.2,6.9-30.3c1-4.3-0.3-6-4.7-6
				c0,0,0,0,0,0c-2.6,0-4.9,1.8-5.5,4.4l-5.7,24.8c-0.1,0.6-0.7,1.1-1.4,1.1H40.2c-0.7,0-1.4-0.5-1.5-1.2l-6.3-31
				c-0.1-0.5-0.2-1-0.4-1.8c-0.3-1.3-0.6-2.6-0.9-3.9c-0.2-0.7-0.3-1.7-0.7-2.2c-0.4-0.5-1.1-0.6-1.8-0.6c-6.7,0-13.4,0-20.1,0
				c-1,0-1.2,0.2-1.2,1.2c0.1,2.2,0,9.3,5.8,9.3c2.4,0,4.7,0,7.1,0c1.2,0,2.3,0.8,2.5,2c3.4,16.8,6.9,33.6,10.3,50.4
				c0.3,1.5-0.2,2.5-1.2,3.5c-2.5,2.5-3.5,5.5-2.4,9c1,3.3,3.2,5.4,6.5,6.1c3.8,0.9,6.9-0.5,9.2-3.5c2.2-2.9,2.2-6.3,0.6-9.5
				c-1.3-2.7-1.1-2,3.5-2.2c7.8-0.3,15.6-0.3,23.5,0c4.5,0.2,4.8-0.5,3.5,2c-2.9,5.6-0.3,11.7,5.7,13.2c3.7,0.9,8.1-1.1,9.8-4.5
				c1.9-3.6,1.1-8.5-2-10.9c-1.5-1.2-1.8-2.3-1.4-4.1c0.8-3.2-1.1-5.7-4.4-5.7c-13.1,0-26.1,0-39.2,0c-1.3,0-2.6,0-3-1.7
				C40.9,57.6,41.2,57.1,44.6,57.1z"/>
			<path class="st12" d="M38.1,89.3c-0.8,0-1.6-0.1-2.5-0.3c-3.8-0.9-6.4-3.3-7.5-7.1c-1.2-3.9-0.2-7.4,2.8-10.3
				c0.9-0.8,1-1.3,0.8-2.3c-3.2-15.2-6.4-31.2-10.3-50.4c-0.1-0.6-0.6-1-1.2-1c0,0,0,0,0,0c-1.8,0-3.7,0-5.5,0l-1.7,0
				C6.3,18,6,10.3,5.9,7.7l0-0.4c0-0.6,0-1.4,0.6-1.9c0.6-0.6,1.3-0.6,2-0.6c5,0,10.2,0,15.1,0l4.9,0c0.5,0,1.9,0,2.8,1
				c0.6,0.7,0.8,1.7,1,2.5l0.1,0.3c0.1,0.5,0.2,1.1,0.4,1.6c0.2,0.8,0.4,1.6,0.5,2.4c0.1,0.7,0.2,1.2,0.4,1.7l6.3,31
				c0,0.1,0.1,0.1,0.2,0.1h41.3l5.7-24.8c0.7-3.2,3.5-5.4,6.8-5.4c0,0,0,0,0,0c1.7,0,4.1,0.2,5.4,1.9c1.4,1.7,1,4.1,0.6,5.7
				l-1.2,5.5c-1.9,8.3-3.8,16.5-5.6,24.8c-0.9,4.1-2.4,5.3-6.6,5.3l-42.1,0c-1.2,0-1.7,0.1-1.9,0.1c0,0.2,0,0.7,0.4,1.9
				c0.2,0.6,0.2,0.7,1.6,0.7h0.1c13.1,0,26.2,0,39.2,0c2,0,3.6,0.8,4.7,2.1c1.1,1.4,1.5,3.3,1,5.2c-0.3,1.3-0.1,1.9,0.9,2.7
				c3.5,2.8,4.6,8.3,2.4,12.6c-2,3.9-7,6.2-11.3,5.2c-3.2-0.8-5.8-2.8-7.1-5.7c-1.3-2.9-1.2-6.4,0.5-9.4c-0.6,0-1.4,0-2.3,0
				c-8.5-0.3-16.2-0.3-23.4,0c-1,0-1.8,0-2.4,0c0,0,0,0,0,0l0.1,0.2c1.9,4,1.6,7.7-0.8,10.9C44.1,87.8,41.3,89.3,38.1,89.3z
				 M20.3,15.2c1.8,0,3.4,1.3,3.8,3.1c3.9,19.2,7.2,35.2,10.3,50.4c0.5,2.3-0.5,3.7-1.6,4.8c-2.3,2.2-3,4.7-2.1,7.6
				c0.9,2.9,2.7,4.6,5.5,5.2c3.1,0.7,5.8-0.3,7.8-3c1.8-2.3,1.9-5.1,0.5-8.1L44.4,75c-0.6-1.2-1-2-0.4-2.9c0.5-0.9,1.4-0.9,2.9-0.9
				c0.6,0,1.3,0,2.3,0c7.2-0.3,15-0.3,23.6,0c0.9,0,1.6,0,2.2,0c1.6,0,2.5,0,3.1,0.9c0.5,0.9,0.1,1.8-0.6,3
				c-1.2,2.3-1.4,4.9-0.4,7.1c1,2.1,2.8,3.6,5.2,4.1c3.1,0.7,6.8-1,8.3-3.8c1.6-3.1,0.9-7.3-1.6-9.2c-1.9-1.5-2.4-3.1-1.9-5.4
				c0.3-1.2,0.1-2.2-0.5-2.9c-0.6-0.7-1.5-1.1-2.6-1.1c-13.1,0-26.1,0-39.2,0h-0.1c-1.3,0-3.5,0-4.2-2.7c-0.4-1.7-0.7-3.2,0.1-4.3
				c0.8-1.1,2.3-1.2,4.1-1.2l42.1,0c2.9,0,3.3-0.3,3.9-3.2c1.9-8.3,3.7-16.5,5.6-24.8l1.2-5.5c0.4-1.7,0.4-2.9-0.1-3.5
				c-0.5-0.6-1.5-0.9-3.2-0.9c0,0,0,0,0,0c-2,0-3.8,1.4-4.2,3.3L84.2,46c-0.3,1.3-1.4,2.2-2.7,2.2H40.2c-1.4,0-2.6-1-2.8-2.3
				l-6.3-31c-0.1-0.4-0.2-1-0.4-1.8c-0.1-0.8-0.3-1.5-0.5-2.3c-0.1-0.5-0.3-1.1-0.4-1.6l-0.1-0.4c-0.1-0.3-0.2-1-0.3-1.2
				c0,0-0.2-0.1-0.8-0.1l-4.9,0c-4.9,0-10,0-15,0l0,0.2c0.1,3.8,0.7,7.6,4.4,7.6l1.7,0C16.5,15.3,18.4,15.3,20.3,15.2
				C20.2,15.2,20.2,15.2,20.3,15.2z"/>
		</g>
	</g>
</g>
</svg>
