<?xml version="1.0" encoding="utf-8"?>
<!-- Generator: Adobe Illustrator 24.0.0, SVG Export Plug-In . SVG Version: 6.00 Build 0)  -->
<svg version="1.1" xmlns="http://www.w3.org/2000/svg" xmlns:xlink="http://www.w3.org/1999/xlink" x="0px" y="0px"
	 viewBox="0 0 98.9 98.9" style="enable-background:new 0 0 98.9 98.9;" xml:space="preserve">
<style type="text/css">
	.st0{display:none;fill:#0C1B3D;stroke:#231F20;stroke-miterlimit:10;}
	.st1{fill:#FFFFFF;}
	.st2{display:none;}
	.st3{display:inline;fill:#FFFFFF;}
	.st4{display:inline;fill:none;stroke:#0C1B3D;stroke-miterlimit:10;}
	.st5{display:inline;fill:none;stroke:#CCFF00;stroke-miterlimit:10;}
	.st6{display:inline;fill:#FFFFFF;stroke:#231F20;stroke-miterlimit:10;}
	.st7{display:inline;}
	.st8{fill:#231F20;}
	.st9{fill:#0C1B3D;}
	.st10{fill:none;stroke:#0C1B3D;stroke-width:3;stroke-miterlimit:10;}
	.st11{display:none;fill:#0C1B3D;}
	.st12{fill:#CCFF00;}
	.st13{fill:none;stroke:#0C1B3D;stroke-width:13;stroke-miterlimit:10;}
	.st14{opacity:0.3;fill:#CCFF00;}
	.st15{opacity:0.6;fill:#CCFF00;}
	.st16{display:none;fill:#CCFF00;}
	.st17{opacity:0.3;fill:#15F4EE;}
	.st18{opacity:0.6;fill:#15F4EE;}
	.st19{fill:#15F4EE;}
	.st20{opacity:0.3;}
	.st21{opacity:0.6;}
	.st22{fill:#FF00FF;stroke:#000000;stroke-width:12;stroke-linecap:round;stroke-miterlimit:10;}
	.st23{opacity:0.5;fill:#542677;}
	.st24{opacity:0.75;fill:#542677;}
	.st25{fill:#542677;}
	.st26{opacity:0.5;fill:#CCFF00;}
	.st27{fill:#0C1B3D;stroke:#CCFF00;stroke-width:3;stroke-miterlimit:10;}
	.st28{opacity:0.8;fill:#FF00FF;}
	.st29{opacity:0.9;fill:#15F4EE;}
	.st30{opacity:0.9;}
	.st31{opacity:0.8;}
	.st32{fill:#FF00FF;}
	.st33{opacity:0.5;}
</style>
<g id="Layer_1">
</g>
<g id="Layer_9" class="st2">
</g>
<g id="Layer_2" class="st2">
</g>
<g id="Layer_3" class="st2">
</g>
<g id="Layer_7">
</g>
<g id="sun">
</g>
<g id="moon">
</g>
<g id="cart">
</g>
<g id="ham">
	<g>
		<g class="st30">
			<g>
				<line class="st19" x1="6.2" y1="47.9" x2="58.5" y2="14.3"/>
			</g>
			<g>
				<path class="st19" d="M62.4,20.3L10.1,53.9c-2.7,1.7-6.6,0.4-8.8-2.9c-2.1-3.3-1.7-7.5,1-9.2L54.6,8.2c2.7-1.7,6.6-0.4,8.8,2.9
					C65.5,14.5,65.1,18.6,62.4,20.3z"/>
			</g>
		</g>
		<g class="st30">
			<g>
				<line class="st19" x1="22.9" y1="69.4" x2="75.1" y2="35.8"/>
			</g>
			<g>
				<path class="st19" d="M79,41.9L26.8,75.5c-2.7,1.7-6.6,0.4-8.8-2.9s-1.7-7.5,1-9.2l52.2-33.6c2.7-1.7,6.6-0.4,8.8,2.9
					C82.1,36,81.7,40.1,79,41.9z"/>
			</g>
		</g>
		<g class="st30">
			<g>
				<line class="st19" x1="39.6" y1="92.1" x2="91.9" y2="58.4"/>
			</g>
			<g>
				<path class="st19" d="M95.7,64.5L43.5,98.1c-2.7,1.7-6.6,0.4-8.8-2.9s-1.7-7.5,1-9.2L88,52.4c2.7-1.7,6.6-0.4,8.8,2.9
					C98.9,58.6,98.4,62.8,95.7,64.5z"/>
			</g>
		</g>
		<g>
			<g class="st31">
				<g>
					<line class="st32" x1="6.8" y1="40.4" x2="59.1" y2="6.8"/>
				</g>
				<g>
					<path class="st32" d="M63,12.9L10.7,46.5c-2.7,1.7-6.6,0.4-8.8-2.9c-2.1-3.3-1.7-7.5,1-9.2L55.2,0.8C57.9-1,61.8,0.3,64,3.7
						C66.1,7,65.7,11.1,63,12.9z"/>
				</g>
			</g>
			<g class="st31">
				<g>
					<line class="st32" x1="23.7" y1="61.8" x2="75.9" y2="28.2"/>
				</g>
				<g>
					<path class="st32" d="M79.8,34.2L27.6,67.8c-2.7,1.7-6.6,0.4-8.8-2.9c-2.1-3.3-1.7-7.5,1-9.2L72,22.1c2.7-1.7,6.6-0.4,8.8,2.9
						S82.5,32.5,79.8,34.2z"/>
				</g>
			</g>
			<g class="st31">
				<g>
					<line class="st32" x1="40.4" y1="84.1" x2="92.6" y2="50.5"/>
				</g>
				<g>
					<path class="st32" d="M96.5,56.6L44.3,90.2c-2.7,1.7-6.6,0.4-8.8-2.9c-2.1-3.3-1.7-7.5,1-9.2l52.2-33.6
						c2.7-1.7,6.6-0.4,8.8,2.9C99.6,50.7,99.2,54.8,96.5,56.6z"/>
				</g>
			</g>
		</g>
		<g>
			<g>
				<line class="st9" x1="8.6" y1="42.6" x2="55.7" y2="12.3"/>
				
					<rect x="4.1" y="26.1" transform="matrix(0.8411 -0.541 0.541 0.8411 -9.7277 21.7459)" class="st12" width="56.1" height="2.7"/>
			</g>
			<g>
				<path class="st9" d="M59.2,17.7L12.1,48.1c-2.4,1.6-6,0.4-7.9-2.6s-1.5-6.7,0.9-8.3L52.2,6.8c2.4-1.6,6-0.4,7.9,2.6
					C62.1,12.4,61.7,16.1,59.2,17.7z"/>
				<path class="st12" d="M9.7,50.1c-2.5,0-5-1.4-6.7-3.9c-1.1-1.7-1.6-3.7-1.4-5.6c0.2-2,1.2-3.6,2.7-4.6L51.5,5.7
					c3.1-2,7.5-0.6,9.8,3c1.1,1.7,1.6,3.7,1.4,5.6c-0.2,2-1.2,3.6-2.7,4.6L12.8,49.2C11.9,49.8,10.8,50.1,9.7,50.1z M54.6,7.5
					c-0.6,0-1.2,0.2-1.7,0.5L5.8,38.3c-0.8,0.5-1.4,1.5-1.5,2.6c-0.1,1.3,0.2,2.6,1,3.8c1.5,2.4,4.2,3.4,6.1,2.2l47.1-30.3
					c0.8-0.5,1.4-1.5,1.5-2.6c0.1-1.3-0.2-2.6-1-3.8C57.9,8.4,56.2,7.5,54.6,7.5z"/>
			</g>
		</g>
		<g>
			<g>
				<line class="st9" x1="25.4" y1="64.5" x2="72.6" y2="34.1"/>
				
					<rect x="20.9" y="48" transform="matrix(0.8411 -0.541 0.541 0.8411 -18.8885 34.3309)" class="st12" width="56.1" height="2.7"/>
			</g>
			<g>
				<path class="st9" d="M76.1,39.6L28.9,69.9c-2.4,1.6-6,0.4-7.9-2.6c-1.9-3-1.5-6.7,0.9-8.3L69,28.7c2.4-1.6,6-0.4,7.9,2.6
					C78.9,34.3,78.5,38,76.1,39.6z"/>
				<path class="st12" d="M26.5,72c-0.7,0-1.4-0.1-2.2-0.4c-1.8-0.6-3.4-1.9-4.5-3.6c-2.3-3.6-1.8-8.2,1.3-10.2l47.1-30.3
					c1.5-1,3.4-1.2,5.3-0.6c1.8,0.6,3.4,1.9,4.5,3.6c1.1,1.7,1.6,3.7,1.4,5.6c-0.2,2-1.2,3.6-2.7,4.6L29.6,71.1
					C28.7,71.7,27.6,72,26.5,72z M71.5,29.3c-0.6,0-1.2,0.2-1.7,0.5L22.6,60.2c-1.8,1.2-2,4-0.5,6.4c0.8,1.2,1.9,2.1,3.1,2.5
					c1.1,0.4,2.2,0.3,3-0.3l47.1-30.3c0.8-0.5,1.4-1.5,1.5-2.6c0.1-1.3-0.2-2.6-1-3.8c-0.8-1.2-1.9-2.1-3.1-2.5
					C72.3,29.4,71.9,29.3,71.5,29.3z"/>
			</g>
		</g>
		<g>
			<g>
				<line class="st9" x1="42.1" y1="86.5" x2="89.2" y2="56.1"/>
				
					<rect x="37.6" y="69.9" transform="matrix(0.8411 -0.541 0.541 0.8411 -28.1209 46.8541)" class="st12" width="56.1" height="2.7"/>
			</g>
			<g>
				<path class="st9" d="M92.8,61.6L45.6,91.9c-2.4,1.6-6,0.4-7.9-2.6c-1.9-3-1.5-6.7,0.9-8.3l47.1-30.3c2.4-1.6,6-0.4,7.9,2.6
					C95.6,56.3,95.2,60,92.8,61.6z"/>
				<path class="st12" d="M43.2,94c-0.7,0-1.4-0.1-2.2-0.4c-1.8-0.6-3.4-1.9-4.5-3.6c-2.3-3.6-1.8-8.2,1.3-10.2L85,49.5
					c1.5-1,3.4-1.2,5.3-0.6c1.8,0.6,3.4,1.9,4.5,3.6c2.3,3.6,1.8,8.2-1.3,10.2L46.3,93C45.4,93.7,44.3,94,43.2,94z M88.2,51.3
					c-0.6,0-1.2,0.2-1.7,0.5L39.3,82.1c-1.8,1.2-2,4-0.5,6.4c0.8,1.2,1.9,2.1,3.1,2.5c1.1,0.4,2.2,0.3,3-0.3L92,60.4
					c1.8-1.2,2-4,0.5-6.4c-0.8-1.2-1.9-2.1-3.1-2.5C89,51.4,88.6,51.3,88.2,51.3z"/>
			</g>
		</g>
	</g>
</g>
</svg>
