<svg xmlns="http://www.w3.org/2000/svg" viewBox="0 0 75.05 110.57"><defs><style>.cls-1{opacity:0.9;}.cls-2{fill:#15f4ee;}.cls-3{opacity:0.8;}.cls-4{fill:#f0f;}.cls-5{fill:#0c1b3d;}.cls-6{fill:#cf0;}</style></defs><title>nect-icon-light-techamory</title><g id="ham"><g class="cls-1"><path class="cls-2" d="M0,15.28v85.43c0,7.58,6.41,12.31,11.54,8.52L40.47,87.87,69.41,66.52c5.12-3.79,5.12-13.26,0-17L40.47,28.12,11.54,6.76C6.41,3,0,7.71,0,15.28ZM20.19,30.65,53.06,54.92a3.82,3.82,0,0,1,0,6.15L20.19,85.34a3.83,3.83,0,0,1-6.1-3.08V33.73A3.83,3.83,0,0,1,20.19,30.65Z"/></g><g class="cls-3"><path class="cls-4" d="M4,9.56V92.44c0,7.34,6.22,11.93,11.19,8.26L43.25,80,71.32,59.26c5-3.67,5-12.85,0-16.53L43.25,22,15.18,1.29C10.21-2.38,4,2.21,4,9.56ZM23.57,24.47,55.46,48a3.71,3.71,0,0,1,0,6L23.57,77.52a3.71,3.71,0,0,1-5.92-3V27.46A3.71,3.71,0,0,1,23.57,24.47Z"/></g><path class="cls-5" d="M4.35,15.44V92.55c0,6.83,5.79,11.1,10.42,7.69L40.88,81,67,61.69c4.63-3.42,4.63-12,0-15.38L40.88,27,14.77,7.76C10.14,4.34,4.35,8.61,4.35,15.44ZM22.57,29.32l29.67,21.9a3.45,3.45,0,0,1,0,5.55L22.57,78.68a3.45,3.45,0,0,1-5.5-2.78V32.1A3.45,3.45,0,0,1,22.57,29.32Z"/><path class="cls-6" d="M11.3,102.8A7,7,0,0,1,8.16,102C5,100.45,3,96.72,3,92.55V15.44C3,11.27,5,7.55,8.16,6a6.86,6.86,0,0,1,7.41.7L67.8,45.22a10.83,10.83,0,0,1,4,8.78,10.81,10.81,0,0,1-4,8.77L15.57,101.33A7.19,7.19,0,0,1,11.3,102.8Zm0-94.89a4.39,4.39,0,0,0-1.93.47c-2.22,1.13-3.66,3.9-3.66,7.06V92.55c0,3.16,1.44,5.93,3.66,7.06a4.24,4.24,0,0,0,4.6-.46L66.19,60.6A8.11,8.11,0,0,0,69.11,54a8.09,8.09,0,0,0-2.92-6.6L14,8.85A4.46,4.46,0,0,0,11.3,7.91Zm9.22,72.8a4.82,4.82,0,0,1-4.81-4.81V32.1a4.81,4.81,0,0,1,7.67-3.87h0L53,50.13a4.81,4.81,0,0,1,0,7.73L23.38,79.76A4.79,4.79,0,0,1,20.52,80.71Zm0-50.72a2.22,2.22,0,0,0-1,.23,2.08,2.08,0,0,0-1.15,1.88V75.9a2.1,2.1,0,0,0,3.35,1.69l29.66-21.9a2.09,2.09,0,0,0,0-3.38L21.77,30.41h0A2.08,2.08,0,0,0,20.53,30Z"/></g></svg>