<?xml version="1.0" encoding="utf-8"?>
<!-- Generator: Adobe Illustrator 24.0.0, SVG Export Plug-In . SVG Version: 6.00 Build 0)  -->
<svg version="1.1" xmlns="http://www.w3.org/2000/svg" xmlns:xlink="http://www.w3.org/1999/xlink" x="0px" y="0px"
	 viewBox="0 0 121.2 104.2" style="enable-background:new 0 0 121.2 104.2;" xml:space="preserve">
<style type="text/css">
	.st0{display:none;fill:#0C1B3D;stroke:#231F20;stroke-miterlimit:10;}
	.st1{fill:#FFFFFF;}
	.st2{display:none;}
	.st3{display:inline;fill:#FFFFFF;}
	.st4{display:inline;fill:none;stroke:#0C1B3D;stroke-miterlimit:10;}
	.st5{display:inline;fill:none;stroke:#CCFF00;stroke-miterlimit:10;}
	.st6{display:inline;fill:#FFFFFF;stroke:#231F20;stroke-miterlimit:10;}
	.st7{display:inline;}
	.st8{fill:#231F20;}
	.st9{fill:#0C1B3D;}
	.st10{fill:none;stroke:#0C1B3D;stroke-width:3;stroke-miterlimit:10;}
	.st11{display:none;fill:#0C1B3D;}
	.st12{fill:#CCFF00;}
	.st13{fill:none;stroke:#0C1B3D;stroke-width:13;stroke-miterlimit:10;}
	.st14{opacity:0.3;fill:#CCFF00;}
	.st15{opacity:0.6;fill:#CCFF00;}
	.st16{display:none;fill:#CCFF00;}
	.st17{opacity:0.3;fill:#15F4EE;}
	.st18{opacity:0.6;fill:#15F4EE;}
	.st19{fill:#15F4EE;}
	.st20{opacity:0.3;}
	.st21{opacity:0.6;}
	.st22{fill:#FF00FF;stroke:#000000;stroke-width:12;stroke-linecap:round;stroke-miterlimit:10;}
	.st23{opacity:0.5;fill:#542677;}
	.st24{opacity:0.75;fill:#542677;}
	.st25{fill:#542677;}
	.st26{opacity:0.5;fill:#CCFF00;}
	.st27{fill:#0C1B3D;stroke:#CCFF00;stroke-width:3;stroke-miterlimit:10;}
	.st28{opacity:0.8;fill:#FF00FF;}
	.st29{opacity:0.9;fill:#15F4EE;}
	.st30{opacity:0.9;}
	.st31{opacity:0.8;}
	.st32{fill:#FF00FF;}
	.st33{opacity:0.5;}
</style>
<g id="Layer_1">
</g>
<g id="Layer_9" class="st2">
</g>
<g id="Layer_2" class="st2">
</g>
<g id="Layer_3" class="st2">
</g>
<g id="Layer_7">
</g>
<g id="sun">
</g>
<g id="moon">
</g>
<g id="cart">
</g>
<g id="ham">
	<g>
		<g class="st30">
			<path class="st19" d="M80,5.8C58.1,4.6,39.4,21.3,38.2,43.2c-0.4,7.2,1.1,14,4.2,20L1.7,90.7c-2.4,1.6-2.3,5.8,0.1,9.4
				c2.4,3.6,6.3,5.2,8.7,3.6L52,75.5c6.4,5.5,14.6,9,23.7,9.5c21.9,1.2,40.6-15.6,41.8-37.5S101.9,7,80,5.8z M76.4,72.5
				C61.4,71.6,50,58.8,50.8,43.9C51.6,29,64.4,17.5,79.3,18.3c14.9,0.8,26.4,13.6,25.6,28.5C104.1,61.8,91.3,73.3,76.4,72.5z"/>
		</g>
		<g class="st31">
			<path class="st32" d="M85.5,0.1C64.7-1.1,47,14.9,45.8,35.6c-0.4,6.8,1.1,13.3,3.9,19L11.2,80.7c-2.2,1.5-2.2,5.5,0.1,8.9
				c2.3,3.4,6,4.9,8.2,3.4l39.4-26.7c6.1,5.2,13.9,8.6,22.5,9c20.8,1.1,38.6-14.8,39.7-35.6S106.3,1.2,85.5,0.1z M82.1,63.4
				C67.9,62.6,57,50.5,57.8,36.3C58.5,22.1,70.7,11.2,84.9,12c14.2,0.8,25.1,12.9,24.3,27.1C108.4,53.3,96.2,64.2,82.1,63.4z"/>
		</g>
		<g>
			<path class="st9" d="M80.4,5.9C60.6,4.8,43.7,20,42.6,39.7c-0.4,6.5,1,12.6,3.8,18L9.7,82.6C7.6,84,7.6,87.8,9.8,91
				c2.2,3.2,5.7,4.7,7.8,3.2l37.5-25.4c5.8,5,13.2,8.1,21.4,8.6c19.8,1.1,36.6-14.1,37.7-33.8C115.3,23.9,100.1,7,80.4,5.9z
				 M77.1,66.1C63.6,65.4,53.2,53.8,54,40.4c0.7-13.5,12.3-23.8,25.8-23.1s23.8,12.3,23.1,25.8C102.1,56.5,90.5,66.9,77.1,66.1z"/>
			<path class="st12" d="M15.7,96.1c-0.8,0-1.6-0.2-2.5-0.5c-1.7-0.7-3.3-2.1-4.5-3.8C7.5,90,6.8,88,6.8,86.1c0-2,0.8-3.7,2.2-4.7
				l35.7-24.2c-2.5-5.5-3.7-11.6-3.4-17.6c0.5-9.9,4.9-19,12.3-25.7C61,7.4,70.5,4,80.4,4.6c9.9,0.5,19,4.9,25.7,12.3
				c6.6,7.4,10,16.9,9.4,26.8c-0.5,9.9-4.9,19-12.3,25.7c-7.4,6.6-16.9,10-26.8,9.4c-7.9-0.4-15.3-3.3-21.4-8.3L18.4,95.3
				C17.6,95.9,16.7,96.1,15.7,96.1z M78.4,7.2c-8.5,0-16.6,3.1-23,8.8C48.5,22.2,44.5,30.6,44,39.8c-0.3,6,0.9,12,3.6,17.3l0.5,1.1
				L10.5,83.7c-0.9,0.6-1,1.8-1,2.4c0,1.3,0.5,2.8,1.4,4.1c0.9,1.3,2.1,2.4,3.3,2.9c0.6,0.2,1.7,0.6,2.6,0l38.3-25.9l0.8,0.7
				c5.8,5,12.9,7.9,20.6,8.3c9.2,0.5,18-2.6,24.9-8.7c6.9-6.1,10.9-14.6,11.4-23.8c0.5-9.2-2.6-18-8.7-24.9
				C97.9,11.8,89.5,7.8,80.3,7.3l0,0C79.6,7.2,79,7.2,78.4,7.2z M78.4,67.5c-0.5,0-1,0-1.4,0c-14.2-0.8-25.1-13-24.4-27.2
				c0.8-14.2,13-25.1,27.2-24.4c14.2,0.8,25.1,13,24.4,27.2c-0.4,6.9-3.4,13.2-8.6,17.8C90.8,65.2,84.8,67.5,78.4,67.5z M78.4,18.6
				c-12.2,0-22.4,9.5-23.1,21.8c-0.3,6.2,1.7,12.1,5.9,16.7c4.1,4.6,9.8,7.3,15.9,7.7l0,0c6.2,0.3,12.1-1.7,16.7-5.9
				c4.6-4.1,7.3-9.8,7.7-15.9c0.7-12.7-9.1-23.6-21.8-24.3C79.2,18.6,78.8,18.6,78.4,18.6z"/>
		</g>
	</g>
</g>
</svg>
