<?xml version="1.0" encoding="utf-8"?>
<!-- Generator: Adobe Illustrator 24.0.0, SVG Export Plug-In . SVG Version: 6.00 Build 0)  -->
<svg version="1.1" xmlns="http://www.w3.org/2000/svg" xmlns:xlink="http://www.w3.org/1999/xlink" x="0px" y="0px"
	 viewBox="0 0 108 109.2" style="enable-background:new 0 0 108 109.2;" xml:space="preserve">
<style type="text/css">
	.st0{display:none;fill:#0C1B3D;stroke:#231F20;stroke-miterlimit:10;}
	.st1{fill:#FFFFFF;}
	.st2{display:none;}
	.st3{display:inline;fill:#FFFFFF;}
	.st4{display:inline;fill:none;stroke:#0C1B3D;stroke-miterlimit:10;}
	.st5{display:inline;fill:none;stroke:#CCFF00;stroke-miterlimit:10;}
	.st6{display:inline;fill:#FFFFFF;stroke:#231F20;stroke-miterlimit:10;}
	.st7{display:inline;}
	.st8{fill:#231F20;}
	.st9{fill:#0C1B3D;}
	.st10{fill:none;stroke:#0C1B3D;stroke-width:3;stroke-miterlimit:10;}
	.st11{display:none;fill:#0C1B3D;}
	.st12{fill:#CCFF00;}
	.st13{fill:none;stroke:#0C1B3D;stroke-width:13;stroke-miterlimit:10;}
	.st14{opacity:0.3;fill:#CCFF00;}
	.st15{opacity:0.6;fill:#CCFF00;}
	.st16{display:none;fill:#CCFF00;}
	.st17{opacity:0.3;fill:#15F4EE;}
	.st18{opacity:0.6;fill:#15F4EE;}
	.st19{fill:#15F4EE;}
	.st20{opacity:0.3;}
	.st21{opacity:0.6;}
	.st22{fill:#FF00FF;stroke:#000000;stroke-width:12;stroke-linecap:round;stroke-miterlimit:10;}
	.st23{opacity:0.5;fill:#542677;}
	.st24{opacity:0.75;fill:#542677;}
	.st25{fill:#542677;}
	.st26{opacity:0.5;fill:#CCFF00;}
	.st27{fill:#0C1B3D;stroke:#CCFF00;stroke-width:3;stroke-miterlimit:10;}
	.st28{opacity:0.8;fill:#FF00FF;}
	.st29{opacity:0.9;fill:#15F4EE;}
	.st30{opacity:0.9;}
	.st31{opacity:0.8;}
	.st32{fill:#FF00FF;}
	.st33{opacity:0.5;}
</style>
<g id="Layer_1">
</g>
<g id="Layer_9" class="st2">
</g>
<g id="Layer_2" class="st2">
</g>
<g id="Layer_3" class="st2">
</g>
<g id="Layer_7">
</g>
<g id="sun">
</g>
<g id="moon">
</g>
<g id="cart">
</g>
<g id="ham">
	<g class="st30">
		<path class="st19" d="M100.7,64.7L76,45.2c-0.6-0.5-1-1.3-0.9-2l2-31.4c0.1-2-2.1-3.3-3.7-2.2L47.2,27.1c-0.7,0.4-1.5,0.5-2.2,0.2
			L15.8,15.7c-1.9-0.7-3.7,1-3.2,2.9l8.5,30.3c0.2,0.8,0,1.6-0.5,2.2L0.6,75.2c-1.3,1.5-0.2,3.9,1.8,3.9l31.4,1.2
			c0.8,0,1.5,0.4,1.9,1.1l16.8,26.6c1.1,1.7,3.6,1.4,4.3-0.5l10.9-29.5c0.3-0.7,0.9-1.3,1.7-1.5l30.5-7.7
			C101.7,68.4,102.2,65.9,100.7,64.7z M70.9,62.4L66,63.6c-5,1.3-9.1,5-10.9,9.8l-1.7,4.7c-0.6,1.6-2.7,1.8-3.6,0.4L47,74.3
			c-2.8-4.4-7.5-7.2-12.7-7.4l-5-0.2c-1.7-0.1-2.6-2-1.5-3.3l3.2-3.9c3.3-4,4.5-9.4,3.1-14.4l-1.4-4.8c-0.5-1.6,1.1-3.1,2.7-2.4
			l4.7,1.9c1.9,0.7,3.8,1.1,5.9,1.1c3.1,0,6.2-0.9,8.8-2.7l4.2-2.8c1.4-0.9,3.3,0.1,3.1,1.8l-0.3,5c-0.3,5.2,1.9,10.2,6,13.5
			l3.9,3.1C72.9,59.9,72.5,62,70.9,62.4z"/>
	</g>
	<g class="st31">
		<path class="st32" d="M107,55.5L82.4,36c-0.6-0.5-1-1.3-0.9-2l2-31.4c0.1-2-2.1-3.3-3.7-2.2L53.6,17.9c-0.7,0.4-1.5,0.5-2.2,0.2
			L22.2,6.5c-1.9-0.7-3.7,1-3.2,2.9l8.5,30.3c0.2,0.8,0,1.6-0.5,2.2L7,66c-1.3,1.5-0.2,3.9,1.8,3.9l31.4,1.2c0.8,0,1.5,0.4,1.9,1.1
			l16.8,26.6c1.1,1.7,3.6,1.4,4.3-0.5L74,68.9c0.3-0.7,0.9-1.3,1.7-1.5l30.5-7.7C108.1,59.2,108.6,56.7,107,55.5z M77.3,53.2
			l-4.9,1.2c-5,1.3-9.1,5-10.9,9.8L59.7,69c-0.6,1.6-2.7,1.8-3.6,0.4l-2.7-4.3c-2.8-4.4-7.5-7.2-12.7-7.4l-5-0.2
			c-1.7-0.1-2.6-2-1.5-3.3l3.2-3.9c3.3-4,4.5-9.4,3.1-14.4l-1.4-4.8c-0.5-1.6,1.1-3.1,2.7-2.4l4.7,1.9c1.9,0.7,3.8,1.1,5.9,1.1
			c3.1,0,6.2-0.9,8.8-2.7l4.2-2.8c1.4-0.9,3.3,0.1,3.1,1.8l-0.3,5c-0.3,5.2,1.9,10.2,6,13.5l3.9,3.1C79.3,50.7,78.9,52.8,77.3,53.2z
			"/>
	</g>
	<g>
		<path class="st9" d="M97,58.8L74.7,41.2c-0.6-0.4-0.9-1.1-0.8-1.8l1.8-28.3c0.1-1.8-1.9-2.9-3.4-1.9L48.8,24.9
			c-0.6,0.4-1.3,0.5-2,0.2L20.4,14.6c-1.7-0.7-3.4,0.9-2.9,2.6l7.7,27.3c0.2,0.7,0,1.4-0.4,2L6.7,68.3c-1.2,1.4-0.2,3.5,1.6,3.6
			L36.6,73c0.7,0,1.4,0.4,1.7,1l15.1,24c1,1.5,3.2,1.3,3.9-0.4L67.2,71c0.2-0.7,0.8-1.2,1.5-1.4l27.5-7C97.9,62.2,98.4,59.9,97,58.8
			z"/>
		<path class="st12" d="M55.3,100.3c-1.2,0-2.3-0.6-3-1.6l-15.1-24c-0.1-0.2-0.4-0.4-0.7-0.4L8.2,73.2c-1.4-0.1-2.5-0.9-3.1-2.1
			c-0.5-1.2-0.4-2.6,0.5-3.7l18.1-21.8c0.2-0.2,0.2-0.5,0.2-0.7l-7.7-27.3c-0.4-1.3,0-2.7,1-3.6c1-0.9,2.4-1.2,3.7-0.7l26.4,10.5
			c0.2,0.1,0.5,0.1,0.8-0.1L71.6,8c1.1-0.8,2.5-0.8,3.7-0.1c1.2,0.7,1.8,1.9,1.8,3.3l-1.8,28.3c0,0.3,0.1,0.5,0.3,0.7l22.3,17.6
			c1.1,0.8,1.5,2.2,1.3,3.5c-0.3,1.3-1.3,2.3-2.6,2.7l-27.5,7c-0.3,0.1-0.5,0.3-0.6,0.5L58.6,98c-0.5,1.3-1.6,2.1-2.9,2.3
			C55.6,100.3,55.4,100.3,55.3,100.3z M19.6,15.8c-0.3,0-0.5,0.1-0.5,0.2c-0.1,0.1-0.4,0.4-0.2,0.8l7.7,27.3
			c0.3,1.1,0.1,2.3-0.7,3.2L7.7,69.2c-0.3,0.4-0.2,0.7-0.1,0.9c0.1,0.1,0.3,0.5,0.7,0.5l28.3,1.1c1.2,0,2.2,0.7,2.8,1.6l15.1,24
			c0.2,0.4,0.6,0.4,0.8,0.4c0.2,0,0.5-0.1,0.7-0.5l9.8-26.6c0.4-1.1,1.3-1.9,2.4-2.2l27.5-7c0.4-0.1,0.6-0.5,0.6-0.6
			c0-0.1,0.1-0.5-0.3-0.8L73.9,42.3c-0.9-0.7-1.4-1.8-1.3-3L74.4,11c0-0.5-0.3-0.7-0.4-0.8c-0.1-0.1-0.5-0.2-0.9,0L49.5,26
			c-1,0.6-2.2,0.8-3.3,0.3L19.9,15.9C19.8,15.8,19.7,15.8,19.6,15.8z"/>
	</g>
</g>
</svg>
