<?xml version="1.0" encoding="utf-8"?>
<!-- Generator: Adobe Illustrator 24.0.0, SVG Export Plug-In . SVG Version: 6.00 Build 0)  -->
<svg version="1.1" xmlns="http://www.w3.org/2000/svg" xmlns:xlink="http://www.w3.org/1999/xlink" x="0px" y="0px"
	 viewBox="0 0 115.5 115.5" style="enable-background:new 0 0 115.5 115.5;" xml:space="preserve">
<style type="text/css">
	.st0{display:none;fill:#0C1B3D;stroke:#231F20;stroke-miterlimit:10;}
	.st1{fill:#FFFFFF;}
	.st2{display:none;}
	.st3{display:inline;fill:#FFFFFF;}
	.st4{display:inline;fill:none;stroke:#0C1B3D;stroke-miterlimit:10;}
	.st5{display:inline;fill:none;stroke:#CCFF00;stroke-miterlimit:10;}
	.st6{display:inline;fill:#FFFFFF;stroke:#231F20;stroke-miterlimit:10;}
	.st7{display:inline;}
	.st8{fill:#231F20;}
	.st9{fill:#0C1B3D;}
	.st10{fill:none;stroke:#0C1B3D;stroke-width:3;stroke-miterlimit:10;}
	.st11{display:none;fill:#0C1B3D;}
	.st12{fill:#CCFF00;}
	.st13{fill:none;stroke:#0C1B3D;stroke-width:13;stroke-miterlimit:10;}
	.st14{opacity:0.3;fill:#CCFF00;}
	.st15{opacity:0.6;fill:#CCFF00;}
	.st16{display:none;fill:#CCFF00;}
	.st17{opacity:0.3;fill:#15F4EE;}
	.st18{opacity:0.6;fill:#15F4EE;}
	.st19{fill:#15F4EE;}
	.st20{opacity:0.3;}
	.st21{opacity:0.6;}
	.st22{fill:#FF00FF;stroke:#000000;stroke-width:12;stroke-linecap:round;stroke-miterlimit:10;}
	.st23{opacity:0.5;fill:#542677;}
	.st24{opacity:0.75;fill:#542677;}
	.st25{fill:#542677;}
	.st26{opacity:0.5;fill:#CCFF00;}
	.st27{fill:#0C1B3D;stroke:#CCFF00;stroke-width:3;stroke-miterlimit:10;}
	.st28{opacity:0.8;fill:#FF00FF;}
	.st29{opacity:0.9;fill:#15F4EE;}
	.st30{opacity:0.9;}
	.st31{opacity:0.8;}
	.st32{fill:#FF00FF;}
	.st33{opacity:0.5;}
</style>
<g id="Layer_1">
</g>
<g id="Layer_9" class="st2">
</g>
<g id="Layer_2" class="st2">
</g>
<g id="Layer_3" class="st2">
</g>
<g id="Layer_7">
</g>
<g id="sun">
</g>
<g id="moon">
</g>
<g id="cart">
</g>
<g id="ham">
	<g>
		<g class="st33">
			<path class="st12" d="M114.6,56.6l-9.2-5.3l-5.1-3c-0.9-0.5-1.2-1.7-0.7-2.6l3.1-5.4l5.3-9.2c0.7-1.3-0.2-2.8-1.6-2.8l-10.6,0
				l-5.9,0c-1,0-1.9-0.8-1.9-1.9l0-6.2l0-10.6c0-1.4-1.6-2.4-2.8-1.6L76,13.3l-5.1,3c-0.9,0.5-2.1,0.2-2.6-0.7l-3.1-5.4l-5.3-9.2
				c-0.7-1.3-2.5-1.3-3.3,0l-5.3,9.2l-3,5.1c-0.5,0.9-1.7,1.2-2.6,0.7l-5.4-3.1l-9.2-5.3c-1.3-0.7-2.8,0.2-2.8,1.6l0,10.6l0,5.9
				c0,1-0.8,1.9-1.9,1.9l-6.2,0l-10.6,0c-1.4,0-2.4,1.6-1.6,2.8l5.3,9.2l3,5.1c0.5,0.9,0.2,2.1-0.7,2.6l-5.4,3.1l-9.2,5.3
				c-1.3,0.7-1.3,2.5,0,3.3l9.2,5.3l5.1,3c0.9,0.5,1.2,1.7,0.7,2.6l-3.1,5.4l-5.3,9.2c-0.7,1.3,0.2,2.8,1.6,2.8l10.6,0l5.9,0
				c1,0,1.9,0.8,1.9,1.9l0,6.2l0,10.6c0,1.4,1.6,2.4,2.8,1.6l9.2-5.3l5.1-3c0.9-0.5,2.1-0.2,2.6,0.7l3.1,5.4l5.3,9.2
				c0.7,1.3,2.5,1.3,3.3,0l5.3-9.2l3-5.1c0.5-0.9,1.7-1.2,2.6-0.7l5.4,3.1l9.2,5.3c1.3,0.7,2.8-0.2,2.8-1.6l0-10.6l0-5.9
				c0-1,0.8-1.9,1.9-1.9l6.2,0l10.6,0c1.4,0,2.4-1.6,1.6-2.8l-5.3-9.2l-3-5.1c-0.5-0.9-0.2-2.1,0.7-2.6l5.4-3.1l9.2-5.3
				C115.8,59.1,115.8,57.3,114.6,56.6z"/>
		</g>
		<g class="st33">
			<path class="st12" d="M107.7,56.7l-8.1-4.7l-4.5-2.6C94.3,49,94,48,94.5,47.2l2.7-4.7l4.7-8.1c0.6-1.1-0.2-2.5-1.4-2.5l-9.3,0
				l-5.2,0c-0.9,0-1.7-0.7-1.7-1.7l0-5.5l0-9.3c0-1.3-1.4-2.1-2.5-1.4l-8.1,4.7l-4.5,2.6c-0.8,0.5-1.8,0.2-2.3-0.6l-2.7-4.7
				l-4.7-8.1c-0.6-1.1-2.2-1.1-2.9,0l-4.7,8.1l-2.6,4.5C49,21.2,48,21.5,47.2,21l-4.7-2.7l-8.1-4.7c-1.1-0.6-2.5,0.2-2.5,1.4l0,9.3
				l0,5.2c0,0.9-0.7,1.7-1.7,1.7l-5.5,0l-9.3,0c-1.3,0-2.1,1.4-1.4,2.5l4.7,8.1l2.6,4.5c0.5,0.8,0.2,1.8-0.6,2.3l-4.7,2.7l-8.1,4.7
				c-1.1,0.6-1.1,2.2,0,2.9l8.1,4.7l4.5,2.6c0.8,0.5,1.1,1.5,0.6,2.3l-2.7,4.7l-4.7,8.1c-0.6,1.1,0.2,2.5,1.4,2.5l9.3,0l5.2,0
				c0.9,0,1.7,0.7,1.7,1.7l0,5.5l0,9.3c0,1.3,1.4,2.1,2.5,1.4l8.1-4.7l4.5-2.6c0.8-0.5,1.8-0.2,2.3,0.6l2.7,4.7l4.7,8.1
				c0.6,1.1,2.2,1.1,2.9,0l4.7-8.1l2.6-4.5c0.5-0.8,1.5-1.1,2.3-0.6l4.7,2.7l8.1,4.7c1.1,0.6,2.5-0.2,2.5-1.4l0-9.3l0-5.2
				c0-0.9,0.7-1.7,1.7-1.7l5.5,0l9.3,0c1.3,0,2.1-1.4,1.4-2.5l-4.7-8.1l-2.6-4.5c-0.5-0.8-0.2-1.8,0.6-2.3l4.7-2.7l8.1-4.7
				C108.8,59,108.8,57.4,107.7,56.7z"/>
		</g>
		<g>
			<path class="st9" d="M97.9,56.9l-6.5-3.8l-3.6-2.1c-0.6-0.4-0.9-1.2-0.5-1.8l2.2-3.8l3.8-6.5c0.5-0.9-0.1-2-1.2-2l-7.5,0l-4.2,0
				c-0.7,0-1.3-0.6-1.3-1.3l0-4.4l0-7.5c0-1-1.1-1.7-2-1.2l-6.5,3.7L67,28.4c-0.6,0.4-1.5,0.1-1.8-0.5L63,24.1l-3.7-6.5
				c-0.5-0.9-1.8-0.9-2.3,0l-3.8,6.5l-2.1,3.6c-0.4,0.6-1.2,0.9-1.8,0.5L45.4,26L39,22.2c-0.9-0.5-2,0.1-2,1.2l0,7.5l0,4.2
				c0,0.7-0.6,1.3-1.3,1.3l-4.4,0l-7.5,0c-1,0-1.7,1.1-1.2,2l3.7,6.5l2.1,3.6c0.4,0.6,0.1,1.5-0.5,1.8l-3.8,2.2l-6.5,3.7
				c-0.9,0.5-0.9,1.8,0,2.3l6.5,3.8l3.6,2.1c0.6,0.4,0.9,1.2,0.5,1.8L26,70.1l-3.8,6.5c-0.5,0.9,0.1,2,1.2,2l7.5,0l4.2,0
				c0.7,0,1.3,0.6,1.3,1.3l0,4.4l0,7.5c0,1,1.1,1.7,2,1.2l6.5-3.7l3.6-2.1c0.6-0.4,1.5-0.1,1.8,0.5l2.2,3.8l3.7,6.5
				c0.5,0.9,1.8,0.9,2.3,0l3.8-6.5l2.1-3.6c0.4-0.6,1.2-0.9,1.8-0.5l3.8,2.2l6.5,3.8c0.9,0.5,2-0.1,2-1.2l0-7.5l0-4.2
				c0-0.7,0.6-1.3,1.3-1.3l4.4,0l7.5,0c1,0,1.7-1.1,1.2-2l-3.7-6.5L87.1,67c-0.4-0.6-0.1-1.5,0.5-1.8l3.8-2.2l6.5-3.7
				C98.8,58.7,98.8,57.4,97.9,56.9z"/>
			<path class="st12" d="M57.4,100.1C57.4,100.1,57.4,100.1,57.4,100.1c-1,0-1.9-0.5-2.5-1.4l-5.9-10.2l-10,5.8
				c-0.9,0.5-1.9,0.5-2.8,0c-0.9-0.5-1.4-1.4-1.4-2.5l0-11.7l-11.5,0c-1,0-1.9-0.5-2.5-1.4c-0.5-0.9-0.5-1.9,0-2.8l5.9-10.2l-10-5.8
				c-0.9-0.5-1.4-1.4-1.4-2.5c0-1,0.5-1.9,1.4-2.5L27,49.1l-5.8-10c-0.5-0.9-0.5-1.9,0-2.8c0.5-0.9,1.5-1.4,2.5-1.4l11.7,0l0-11.5
				c0-1,0.5-1.9,1.4-2.5c0.9-0.5,1.9-0.5,2.8,0l10.2,5.9l5.8-10c0.5-0.9,1.4-1.4,2.5-1.4c0,0,0,0,0,0c1,0,1.9,0.5,2.4,1.4L66.4,27
				l10-5.8c0.9-0.5,1.9-0.5,2.8,0c0.9,0.5,1.4,1.4,1.4,2.5l0,11.7l11.5,0c1,0,1.9,0.5,2.5,1.4s0.5,1.9,0,2.8l-5.9,10.2l10,5.8
				c0.9,0.5,1.4,1.4,1.4,2.5c0,1-0.5,1.9-1.4,2.5l-10.2,5.9l5.8,10c0.5,0.9,0.5,1.9,0,2.8c-0.5,0.9-1.4,1.4-2.5,1.4c0,0,0,0,0,0
				l-11.7,0l0,11.5c0,1-0.5,1.9-1.4,2.5c-0.9,0.5-1.9,0.5-2.8,0l-10.2-5.9l-5.8,10C59.4,99.6,58.5,100.1,57.4,100.1z M49.2,85.5
				c1,0,1.9,0.5,2.5,1.4l5.8,10.1l5.7-9.9c0.4-0.7,1-1.1,1.7-1.3c0.7-0.2,1.5-0.1,2.1,0.3l10,5.8l0-11.4c0-0.8,0.3-1.5,0.8-2
				c0.5-0.5,1.2-0.8,2-0.8c0,0,0,0,0,0l11.6,0l-5.7-9.9c-0.4-0.7-0.5-1.4-0.3-2.1c0.2-0.7,0.7-1.3,1.3-1.7l10.1-5.8l-9.9-5.7
				c-0.7-0.4-1.1-1-1.3-1.7c-0.2-0.7-0.1-1.5,0.3-2.1l5.8-10l-11.4,0c-1.6,0-2.8-1.3-2.8-2.8l0-11.6l-9.9,5.7
				c-1.4,0.8-3.1,0.3-3.9-1l-5.8-10.1l-5.7,9.9c-0.8,1.4-2.5,1.8-3.9,1l-10-5.8l0,11.4c0,0.8-0.3,1.5-0.8,2c-0.5,0.5-1.2,0.8-2,0.8
				c0,0,0,0,0,0l-11.6,0l5.7,9.9c0.4,0.7,0.5,1.4,0.3,2.1c-0.2,0.7-0.7,1.3-1.3,1.7l-10.1,5.8l9.9,5.7c0.7,0.4,1.1,1,1.3,1.7
				s0.1,1.5-0.3,2.1l-5.8,10l11.4,0c0.8,0,1.5,0.3,2,0.8c0.5,0.5,0.8,1.2,0.8,2l0,11.6l9.9-5.7C48.2,85.6,48.7,85.5,49.2,85.5z"/>
		</g>
	</g>
</g>
</svg>
