<?xml version="1.0" encoding="utf-8"?>
<!-- Generator: Adobe Illustrator 24.0.0, SVG Export Plug-In . SVG Version: 6.00 Build 0)  -->
<svg version="1.1" xmlns="http://www.w3.org/2000/svg" xmlns:xlink="http://www.w3.org/1999/xlink" x="0px" y="0px"
	 viewBox="0 0 112.8 79.2" style="enable-background:new 0 0 112.8 79.2;" xml:space="preserve">
<style type="text/css">
	.st0{display:none;fill:#0C1B3D;stroke:#231F20;stroke-miterlimit:10;}
	.st1{fill:#FFFFFF;}
	.st2{display:none;}
	.st3{display:inline;fill:#FFFFFF;}
	.st4{display:inline;fill:none;stroke:#0C1B3D;stroke-miterlimit:10;}
	.st5{display:inline;fill:none;stroke:#CCFF00;stroke-miterlimit:10;}
	.st6{display:inline;fill:#FFFFFF;stroke:#231F20;stroke-miterlimit:10;}
	.st7{display:inline;}
	.st8{fill:#231F20;}
	.st9{fill:#0C1B3D;}
	.st10{fill:none;stroke:#0C1B3D;stroke-width:3;stroke-miterlimit:10;}
	.st11{display:none;fill:#0C1B3D;}
	.st12{fill:#CCFF00;}
	.st13{fill:none;stroke:#0C1B3D;stroke-width:13;stroke-miterlimit:10;}
	.st14{opacity:0.3;fill:#CCFF00;}
	.st15{opacity:0.6;fill:#CCFF00;}
	.st16{display:none;fill:#CCFF00;}
	.st17{opacity:0.3;fill:#15F4EE;}
	.st18{opacity:0.6;fill:#15F4EE;}
	.st19{fill:#15F4EE;}
	.st20{opacity:0.3;}
	.st21{opacity:0.6;}
	.st22{fill:#FF00FF;stroke:#000000;stroke-width:12;stroke-linecap:round;stroke-miterlimit:10;}
	.st23{opacity:0.5;fill:#542677;}
	.st24{opacity:0.75;fill:#542677;}
	.st25{fill:#542677;}
	.st26{opacity:0.5;fill:#CCFF00;}
	.st27{fill:#0C1B3D;stroke:#CCFF00;stroke-width:3;stroke-miterlimit:10;}
	.st28{opacity:0.8;fill:#FF00FF;}
	.st29{opacity:0.9;fill:#15F4EE;}
	.st30{opacity:0.9;}
	.st31{opacity:0.8;}
	.st32{fill:#FF00FF;}
	.st33{opacity:0.5;}
</style>
<g id="Layer_1">
</g>
<g id="Layer_9" class="st2">
</g>
<g id="Layer_2" class="st2">
</g>
<g id="Layer_3" class="st2">
</g>
<g id="Layer_7">
</g>
<g id="sun">
</g>
<g id="moon">
</g>
<g id="cart">
</g>
<g id="ham">
	<g>
		<g class="st30">
			<path class="st19" d="M9.9,79.2h42.7h42.7c7.6,0,12.3-6.4,8.5-11.5L82.4,38.7L61.1,9.8c-3.8-5.1-13.3-5.1-17,0L22.7,38.7
				L1.3,67.7C-2.5,72.8,2.3,79.2,9.9,79.2z M25.2,59l24.3-32.9c1.5-2.1,4.6-2.1,6.2,0L79.9,59c1.9,2.5,0.1,6.1-3.1,6.1H28.3
				C25.2,65.1,23.4,61.6,25.2,59z"/>
		</g>
		<g class="st31">
			<path class="st32" d="M19.9,71.4h41.6h41.6c7.4,0,12-6.2,8.3-11.2L90.7,31.9L69.9,3.7c-3.7-5-12.9-5-16.6,0L32.5,31.9L11.6,60.1
				C7.9,65.1,12.6,71.4,19.9,71.4z M34.9,51.7l23.7-32c1.5-2,4.5-2,6,0l23.6,32c1.8,2.5,0.1,5.9-3,5.9H37.9
				C34.9,57.7,33.1,54.2,34.9,51.7z"/>
		</g>
		<g>
			<path class="st9" d="M20,70.9h38.6h38.6c6.8,0,11.1-5.8,7.7-10.4L85.5,34.3L66.3,8.2c-3.4-4.6-12-4.6-15.4,0L31.6,34.3L12.3,60.4
				C8.9,65.1,13.2,70.9,20,70.9z M33.9,52.6L55.8,23c1.4-1.9,4.2-1.9,5.6,0l21.9,29.7c1.7,2.3,0.1,5.5-2.8,5.5H36.7
				C33.8,58.1,32.2,54.9,33.9,52.6z"/>
			<path class="st12" d="M97.1,72.2H20c-4.2,0-7.9-2-9.5-5.2c-1.2-2.4-1-5.1,0.7-7.4L49.8,7.4c1.9-2.5,5.1-4,8.8-4
				c3.6,0,6.9,1.5,8.8,4l38.6,52.2c1.7,2.3,1.9,5,0.7,7.4C105,70.2,101.3,72.2,97.1,72.2z M58.6,6.1c-2.8,0-5.2,1.1-6.6,2.9
				L13.4,61.2c-1.1,1.4-1.2,3.1-0.5,4.6c1.1,2.2,3.9,3.7,7.1,3.7h77.1c3.2,0,5.9-1.4,7.1-3.7c0.8-1.5,0.6-3.1-0.5-4.6L65.2,9
				C63.8,7.2,61.4,6.1,58.6,6.1z M80.5,59.5H36.7c-1.8,0-3.5-1-4.3-2.6c-0.8-1.6-0.7-3.6,0.4-5l21.9-29.7c0.9-1.2,2.3-2,3.9-2
				c1.5,0,3,0.7,3.9,2l21.9,29.7c1.1,1.5,1.2,3.4,0.4,5C83.9,58.5,82.3,59.5,80.5,59.5z M58.6,22.9c-0.7,0-1.3,0.3-1.7,0.9L35,53.4
				c-0.5,0.7-0.5,1.5-0.2,2.2c0.4,0.7,1.1,1.2,1.9,1.2h43.8c0.8,0,1.5-0.4,1.9-1.2c0.4-0.7,0.3-1.5-0.2-2.2L60.3,23.8
				C59.9,23.2,59.2,22.9,58.6,22.9z"/>
		</g>
	</g>
</g>
</svg>
