<?xml version="1.0" encoding="utf-8"?>
<!-- Generator: Adobe Illustrator 24.0.0, SVG Export Plug-In . SVG Version: 6.00 Build 0)  -->
<svg version="1.1" xmlns="http://www.w3.org/2000/svg" xmlns:xlink="http://www.w3.org/1999/xlink" x="0px" y="0px"
	 viewBox="0 0 90.4 96" style="enable-background:new 0 0 90.4 96;" xml:space="preserve">
<style type="text/css">
	.st0{display:none;fill:#0C1B3D;stroke:#231F20;stroke-miterlimit:10;}
	.st1{fill:#FFFFFF;}
	.st2{display:none;}
	.st3{display:inline;fill:#FFFFFF;}
	.st4{display:inline;fill:none;stroke:#0C1B3D;stroke-miterlimit:10;}
	.st5{display:inline;fill:none;stroke:#CCFF00;stroke-miterlimit:10;}
	.st6{display:inline;fill:#FFFFFF;stroke:#231F20;stroke-miterlimit:10;}
	.st7{display:inline;}
	.st8{fill:#231F20;}
	.st9{fill:#0C1B3D;}
	.st10{fill:none;stroke:#0C1B3D;stroke-width:3;stroke-miterlimit:10;}
	.st11{display:none;fill:#0C1B3D;}
	.st12{fill:#CCFF00;}
	.st13{fill:none;stroke:#0C1B3D;stroke-width:13;stroke-miterlimit:10;}
	.st14{opacity:0.3;fill:#CCFF00;}
	.st15{opacity:0.6;fill:#CCFF00;}
	.st16{display:none;fill:#CCFF00;}
	.st17{opacity:0.3;fill:#15F4EE;}
	.st18{opacity:0.6;fill:#15F4EE;}
	.st19{fill:#15F4EE;}
	.st20{opacity:0.3;}
	.st21{opacity:0.6;}
	.st22{fill:#FF00FF;stroke:#000000;stroke-width:12;stroke-linecap:round;stroke-miterlimit:10;}
	.st23{opacity:0.5;fill:#542677;}
	.st24{opacity:0.75;fill:#542677;}
	.st25{fill:#542677;}
	.st26{opacity:0.5;fill:#CCFF00;}
	.st27{fill:#0C1B3D;stroke:#CCFF00;stroke-width:3;stroke-miterlimit:10;}
	.st28{opacity:0.8;fill:#FF00FF;}
	.st29{opacity:0.9;fill:#15F4EE;}
	.st30{opacity:0.9;}
	.st31{opacity:0.8;}
	.st32{fill:#FF00FF;}
	.st33{opacity:0.5;}
</style>
<g id="Layer_1">
</g>
<g id="Layer_9" class="st2">
</g>
<g id="Layer_2" class="st2">
</g>
<g id="Layer_3" class="st2">
</g>
<g id="Layer_7">
</g>
<g id="sun">
</g>
<g id="moon">
</g>
<g id="cart">
</g>
<g id="ham">
	<g>
		<g>
			<g class="st30">
				<g>
					<line class="st19" x1="29.8" y1="17.4" x2="63.1" y2="88.6"/>
				</g>
				<g>
					<path class="st19" d="M56.4,91.7L23.2,20.5c-1.7-3.7-0.1-8.1,3.6-9.8s8.1-0.1,9.8,3.6l33.3,71.2c1.7,3.7,0.1,8.1-3.6,9.8
						C62.5,97,58.2,95.4,56.4,91.7z"/>
				</g>
			</g>
			<g class="st30">
				<g>
					<line class="st19" x1="7.4" y1="66.2" x2="78.6" y2="32.9"/>
				</g>
				<g>
					<path class="st19" d="M81.7,39.6L10.5,72.9c-3.7,1.7-8.1,0.1-9.8-3.6c-1.7-3.7-0.1-8.1,3.6-9.8l71.2-33.3
						c3.7-1.7,8.1-0.1,9.8,3.6C87,33.5,85.4,37.9,81.7,39.6z"/>
				</g>
			</g>
		</g>
		<g>
			<g class="st31">
				<g>
					<line class="st32" x1="34.3" y1="7.4" x2="67.6" y2="78.6"/>
				</g>
				<g>
					<path class="st32" d="M60.9,81.7L27.7,10.5c-1.7-3.7-0.1-8.1,3.6-9.8s8.1-0.1,9.8,3.6l33.3,71.2c1.7,3.7,0.1,8.1-3.6,9.8
						C67,87,62.7,85.4,60.9,81.7z"/>
				</g>
			</g>
			<g class="st31">
				<g>
					<line class="st32" x1="11.9" y1="56.2" x2="83.1" y2="22.9"/>
				</g>
				<g>
					<path class="st32" d="M86.2,29.5L15,62.8c-3.7,1.7-8.1,0.1-9.8-3.6s-0.1-8.1,3.6-9.8L80,16.2c3.7-1.7,8.1-0.1,9.8,3.6
						S89.9,27.8,86.2,29.5z"/>
				</g>
			</g>
		</g>
		<g>
			<g>
				<line class="st9" x1="33.2" y1="13.6" x2="63.3" y2="77.9"/>
				
					<rect x="46.9" y="10.3" transform="matrix(0.9059 -0.4235 0.4235 0.9059 -14.838 24.741)" class="st12" width="2.7" height="71"/>
			</g>
			<g>
				<path class="st9" d="M57.3,80.7l-30-64.3c-1.6-3.3-0.1-7.3,3.2-8.8s7.3-0.1,8.8,3.2l30,64.3c1.6,3.3,0.1,7.3-3.2,8.8
					C62.8,85.5,58.8,84,57.3,80.7z"/>
				<path class="st12" d="M63.3,85.9c-3,0-5.9-1.7-7.3-4.6v0L26,17c-0.9-1.9-1-4.1-0.3-6.1c0.7-2,2.2-3.6,4.1-4.5
					c1.9-0.9,4.1-1,6.1-0.3c2,0.7,3.6,2.2,4.5,4.1l30,64.3c0.9,1.9,1,4.1,0.3,6.1c-0.7,2-2.2,3.6-4.1,4.5
					C65.6,85.7,64.4,85.9,63.3,85.9z M58.5,80.1c1.2,2.6,4.4,3.8,7,2.6c1.3-0.6,2.2-1.7,2.7-3c0.5-1.3,0.4-2.8-0.2-4L38,11.4
					c-0.6-1.3-1.7-2.2-3-2.7c-1.3-0.5-2.8-0.4-4,0.2c-1.3,0.6-2.2,1.7-2.7,3c-0.5,1.3-0.4,2.8,0.2,4L58.5,80.1L58.5,80.1z"/>
			</g>
		</g>
		<g>
			<g>
				<line class="st9" x1="13" y1="57.7" x2="77.2" y2="27.6"/>
				
					<rect x="9.6" y="41.3" transform="matrix(0.906 -0.4233 0.4233 0.906 -13.8134 23.1036)" class="st12" width="71" height="2.7"/>
			</g>
			<g>
				<path class="st9" d="M80.1,33.6l-64.3,30c-3.3,1.6-7.3,0.1-8.8-3.2s-0.1-7.3,3.2-8.8l64.3-30c3.3-1.6,7.3-0.1,8.8,3.2
					C84.8,28.1,83.4,32.1,80.1,33.6z"/>
				<path class="st12" d="M13,65.7c-3,0-5.9-1.7-7.3-4.6c-0.9-1.9-1-4.1-0.3-6.1c0.7-2,2.2-3.6,4.1-4.5l64.3-30
					c1.9-0.9,4.1-1,6.1-0.3c2,0.7,3.6,2.2,4.5,4.1c0.9,1.9,1,4.1,0.3,6.1c-0.7,2-2.2,3.6-4.1,4.5h0l-64.3,30
					C15.3,65.4,14.1,65.7,13,65.7z M77.2,22.3c-0.8,0-1.5,0.2-2.2,0.5l-64.3,30c-1.3,0.6-2.2,1.7-2.7,3c-0.5,1.3-0.4,2.8,0.2,4
					c1.2,2.6,4.4,3.8,7,2.5l64.3-30h0c1.3-0.6,2.3-1.7,2.7-3c0.5-1.3,0.4-2.8-0.2-4c-0.6-1.3-1.7-2.3-3-2.7
					C78.5,22.4,77.8,22.3,77.2,22.3z"/>
			</g>
		</g>
	</g>
</g>
</svg>
