<?xml version="1.0" encoding="utf-8"?>
<!-- Generator: Adobe Illustrator 24.0.0, SVG Export Plug-In . SVG Version: 6.00 Build 0)  -->
<svg version="1.1"
	 id="Слой_1" inkscape:version="0.91 r13725" sodipodi:docname="YouTube_social_white_squircle_(2017).svg" xmlns:cc="http://creativecommons.org/ns#" xmlns:dc="http://purl.org/dc/elements/1.1/" xmlns:inkscape="http://www.inkscape.org/namespaces/inkscape" xmlns:rdf="http://www.w3.org/1999/02/22-rdf-syntax-ns#" xmlns:sodipodi="http://sodipodi.sourceforge.net/DTD/sodipodi-0.dtd" xmlns:svg="http://www.w3.org/2000/svg"
	 xmlns="http://www.w3.org/2000/svg" xmlns:xlink="http://www.w3.org/1999/xlink" x="0px" y="0px" viewBox="0 0 300 300"
	 style="enable-background:new 0 0 300 300;" xml:space="preserve">
<style type="text/css">
	.st0{fill:#FFFFFF;}
	.st1{fill:#FF0000;}
	.st2{fill:#15F4EE;}
</style>
<sodipodi:namedview  bordercolor="#666666" borderopacity="1" fit-margin-bottom="0" fit-margin-left="0" fit-margin-right="0" fit-margin-top="0" gridtolerance="10" guidetolerance="10" id="namedview13" inkscape:current-layer="Слой_1" inkscape:cx="140.1615" inkscape:cy="129.72071" inkscape:pageopacity="0" inkscape:pageshadow="2" inkscape:window-height="715" inkscape:window-maximized="1" inkscape:window-width="1366" inkscape:window-x="-8" inkscape:window-y="-8" inkscape:zoom="1.18" objecttolerance="10" pagecolor="#ffffff" showgrid="false">
	</sodipodi:namedview>
<rect x="106.9" y="106.7" class="st0" width="83.8" height="83.8"/>
<g id="g4167" transform="matrix(5.9026317,0,0,5.9026317,521.39665,-711.31763)">
	<path id="path4156" inkscape:connector-curvature="0" class="st1" d="M-62.9,133.9c0,0-10.7,0-13.4,0.7c-1.4,0.4-2.6,1.6-3,3
		c-0.7,2.7-0.7,8.3-0.7,8.3s0,5.6,0.7,8.2c0.4,1.5,1.6,2.6,3,3c2.7,0.7,13.4,0.7,13.4,0.7s10.7,0,13.4-0.7c1.5-0.4,2.6-1.5,3-3
		c0.7-2.7,0.7-8.2,0.7-8.2s0-5.6-0.7-8.3c-0.4-1.5-1.5-2.6-3-3C-52.2,133.9-62.9,133.9-62.9,133.9z M-66.3,140.8l8.9,5.1l-8.9,5.1
		V140.8L-66.3,140.8z"/>
</g>
<g>
	<polygon class="st2" points="150,0 150,0 150,0 	"/>
	<path class="st2" d="M248.3,292.1c20.1-7.8,36.1-23.7,43.9-43.9c3.7-9.5,6.2-20.4,7-36.4c0.7-15.3,0.9-20.7,0.9-56.7v-10.3
		c0-36-0.2-41.4-0.9-56.7c-0.7-16-3.3-26.9-7-36.4c-3.8-10-9.7-19.1-17.3-26.6c-7.5-7.6-16.6-13.5-26.6-17.3
		c-9.5-3.7-20.4-6.2-36.4-7C195.8,0.2,190.7,0,150,0s-45.8,0.2-61.8,0.9c-16,0.7-26.9,3.3-36.4,7c-10,3.8-19.1,9.7-26.6,17.3
		c-7.6,7.5-13.5,16.6-17.3,26.6c-3.7,9.5-6.2,20.4-7,36.4C0.2,103.4,0,108.8,0,144.9v10.3c0,36,0.2,41.4,0.9,56.7
		c0.7,16,3.3,26.9,7,36.4c3.8,10,9.7,19.1,17.3,26.6c7.5,7.6,16.6,13.5,26.6,17.3c9.5,3.7,20.4,6.2,36.4,7c16,0.7,21.1,0.9,61.8,0.9
		c40.7,0,45.8-0.2,61.8-0.9C227.8,298.4,238.7,295.8,248.3,292.1z M150,273c-40.1,0-44.8-0.2-60.6-0.9c-14.6-0.7-22.6-3.1-27.9-5.2
		c-6.5-2.4-12.4-6.2-17.2-11.2c-5-4.8-8.8-10.7-11.2-17.2c-2.1-5.3-4.5-13.2-5.2-27.9C27.2,194.8,27,190.1,27,150s0.2-44.8,0.9-60.6
		c0.7-14.6,3.1-22.6,5.2-27.9c2.4-6.5,6.2-12.4,11.2-17.2c4.8-5,10.7-8.8,17.2-11.2c5.3-2.1,13.2-4.5,27.9-5.2
		c15.8-0.7,20.6-0.9,60.6-0.9l0,0c40.1,0,44.8,0.2,60.6,0.9c14.6,0.7,22.6,3.1,27.9,5.2c6.5,2.4,12.4,6.2,17.2,11.2
		c5,4.8,8.8,10.7,11.2,17.2c2.1,5.3,4.5,13.2,5.2,27.9c0.7,15.8,0.9,20.6,0.9,60.6s-0.2,44.8-0.9,60.6c-0.7,14.6-3.1,22.6-5.2,27.9
		c-5,13.1-15.4,23.4-28.5,28.5c-5.3,2.1-13.2,4.5-27.9,5.2C194.8,272.8,190.1,273,150,273z"/>
</g>
</svg>
