<?xml version="1.0" encoding="utf-8"?>
<!-- Generator: Adobe Illustrator 24.0.0, SVG Export Plug-In . SVG Version: 6.00 Build 0)  -->
<svg version="1.1" xmlns="http://www.w3.org/2000/svg" xmlns:xlink="http://www.w3.org/1999/xlink" x="0px" y="0px"
	 viewBox="0 0 107.7 97.6" style="enable-background:new 0 0 107.7 97.6;" xml:space="preserve">
<style type="text/css">
	.st0{display:none;fill:#0C1B3D;stroke:#231F20;stroke-miterlimit:10;}
	.st1{fill:#FFFFFF;}
	.st2{display:none;}
	.st3{display:inline;fill:#FFFFFF;}
	.st4{display:inline;fill:none;stroke:#0C1B3D;stroke-miterlimit:10;}
	.st5{display:inline;fill:none;stroke:#CCFF00;stroke-miterlimit:10;}
	.st6{display:inline;fill:#FFFFFF;stroke:#231F20;stroke-miterlimit:10;}
	.st7{display:inline;}
	.st8{fill:#231F20;}
	.st9{fill:#0C1B3D;}
	.st10{fill:none;stroke:#0C1B3D;stroke-width:3;stroke-miterlimit:10;}
	.st11{display:none;fill:#0C1B3D;}
	.st12{fill:#CCFF00;}
	.st13{fill:none;stroke:#0C1B3D;stroke-width:13;stroke-miterlimit:10;}
	.st14{opacity:0.3;fill:#CCFF00;}
	.st15{opacity:0.6;fill:#CCFF00;}
	.st16{display:none;fill:#CCFF00;}
	.st17{opacity:0.3;fill:#15F4EE;}
	.st18{opacity:0.6;fill:#15F4EE;}
	.st19{fill:#15F4EE;}
	.st20{opacity:0.3;}
	.st21{opacity:0.6;}
	.st22{fill:#FF00FF;stroke:#000000;stroke-width:12;stroke-linecap:round;stroke-miterlimit:10;}
	.st23{opacity:0.5;fill:#542677;}
	.st24{opacity:0.75;fill:#542677;}
	.st25{fill:#542677;}
	.st26{opacity:0.5;fill:#CCFF00;}
	.st27{fill:#0C1B3D;stroke:#CCFF00;stroke-width:3;stroke-miterlimit:10;}
	.st28{opacity:0.8;fill:#FF00FF;}
	.st29{opacity:0.9;fill:#15F4EE;}
	.st30{opacity:0.9;}
	.st31{opacity:0.8;}
	.st32{fill:#FF00FF;}
	.st33{opacity:0.5;}
</style>
<g id="Layer_1">
</g>
<g id="Layer_9" class="st2">
</g>
<g id="Layer_2" class="st2">
</g>
<g id="Layer_3" class="st2">
</g>
<g id="Layer_7">
</g>
<g id="sun">
</g>
<g id="moon">
</g>
<g id="cart">
</g>
<g id="ham">
	<g>
		<g class="st30">
			<path class="st19" d="M41.3,63.5c15.5,0,31.1,0,46.6,0c3.9,0,5-0.9,5.8-4.7c2.5-11.2,5.1-22.4,7.6-33.5c1.1-4.7-0.4-6.6-5.2-6.6
				c0,0,0,0-0.1,0c-2.9,0-5.4,2-6.1,4.8l-6.3,27.4c-0.2,0.7-0.8,1.2-1.5,1.2H36.5c-0.8,0-1.5-0.6-1.7-1.4l-7-34.3
				c-0.1-0.5-0.3-1.2-0.4-1.9c-0.3-1.5-0.7-2.9-1-4.4c-0.2-0.8-0.3-1.9-0.8-2.4c-0.5-0.5-1.2-0.6-2-0.6C16.1,7,8.7,7,1.3,7
				C0.2,7,0,7.2,0,8.3c0.1,2.4,0,10.3,6.4,10.3c2.6,0,5.2,0,7.9,0c1.4,0,2.5,0.9,2.8,2.3c3.8,18.6,7.6,37.3,11.5,55.9
				c0.3,1.7-0.2,2.7-1.4,3.9c-2.8,2.7-3.9,6-2.7,9.9c1.1,3.7,3.5,6,7.2,6.8c4.2,1,7.7-0.6,10.2-3.9c2.4-3.2,2.4-6.9,0.7-10.5
				c-1.4-3-1.2-2.2,3.9-2.4c8.7-0.4,17.3-0.3,26,0c4.9,0.2,5.3-0.5,3.9,2.2c-3.3,6.2-0.3,13,6.3,14.6c4.1,1,8.9-1.2,10.9-5
				c2.1-4,1.2-9.4-2.2-12.1c-1.7-1.3-2-2.6-1.5-4.5c0.8-3.5-1.3-6.3-4.9-6.3c-14.5,0-29,0-43.5,0c-1.5,0-2.8,0-3.3-1.9
				C37.2,64,37.6,63.5,41.3,63.5z"/>
		</g>
		<g class="st31">
			<path class="st32" d="M47.3,56.5c15.5,0,31.1,0,46.6,0c3.9,0,5-0.9,5.8-4.7c2.5-11.2,5.1-22.4,7.6-33.5c1.1-4.7-0.4-6.6-5.2-6.6
				c0,0,0,0-0.1,0c-2.9,0-5.4,2-6.1,4.8l-6.3,27.4c-0.2,0.7-0.8,1.2-1.5,1.2H42.4c-0.8,0-1.5-0.6-1.7-1.4l-7-34.3
				c-0.1-0.5-0.3-1.2-0.4-1.9c-0.3-1.5-0.7-2.9-1-4.4c-0.2-0.8-0.3-1.9-0.8-2.4c-0.5-0.5-1.2-0.6-2-0.6c-7.4,0-14.8,0-22.2,0
				C6.2,0,5.9,0.2,6,1.3c0.1,2.4,0,10.3,6.4,10.3c2.6,0,5.2,0,7.9,0c1.4,0,2.5,0.9,2.8,2.3c3.8,18.6,7.6,37.3,11.5,55.9
				c0.3,1.7-0.2,2.7-1.4,3.9c-2.8,2.7-3.9,6-2.7,9.9c1.1,3.7,3.5,6,7.2,6.8c4.2,1,7.7-0.6,10.2-3.9c2.4-3.2,2.4-6.9,0.7-10.5
				c-1.4-3-1.2-2.2,3.9-2.4c8.7-0.4,17.3-0.3,26,0c4.9,0.2,5.3-0.5,3.9,2.2c-3.3,6.2-0.3,13,6.3,14.6c4.1,1,8.9-1.2,10.9-5
				c2.1-4,1.2-9.4-2.2-12.1c-1.7-1.3-2-2.6-1.5-4.5c0.8-3.5-1.3-6.3-4.9-6.3c-14.5,0-29,0-43.5,0c-1.5,0-2.8,0-3.3-1.9
				C43.2,57,43.6,56.5,47.3,56.5z"/>
		</g>
		<g>
			<path class="st9" d="M44.2,59.5c15.5,0,31.1,0,46.6,0c3.9,0,5-0.9,5.8-4.7c2.5-11.2,5.1-22.4,7.6-33.5c1.1-4.7-0.4-6.6-5.2-6.6
				c0,0,0,0-0.1,0c-2.9,0-5.4,2-6.1,4.8l-6.3,27.4c-0.2,0.7-0.8,1.2-1.5,1.2H39.3c-0.8,0-1.5-0.6-1.7-1.4l-7-34.3
				c-0.1-0.5-0.3-1.2-0.4-1.9c-0.3-1.5-0.7-2.9-1-4.4c-0.2-0.8-0.3-1.9-0.8-2.4C28,3.2,27.2,3,26.4,3C19,3,11.6,3,4.2,3
				C3.1,3,2.8,3.2,2.9,4.3c0.1,2.4,0,10.3,6.4,10.3c2.6,0,5.2,0,7.9,0c1.4,0,2.5,0.9,2.8,2.3c3.8,18.6,7.6,37.3,11.5,55.9
				c0.3,1.7-0.2,2.7-1.4,3.9c-2.8,2.7-3.9,6-2.7,9.9c1.1,3.7,3.5,6,7.2,6.8c4.2,1,7.7-0.6,10.2-3.9c2.4-3.2,2.4-6.9,0.7-10.5
				c-1.4-3-1.2-2.2,3.9-2.4c8.7-0.4,17.3-0.3,26,0c4.9,0.2,5.3-0.5,3.9,2.2c-3.3,6.2-0.3,13,6.3,14.6c4.1,1,8.9-1.2,10.9-5
				c2.1-4,1.2-9.4-2.2-12.1c-1.7-1.3-2-2.6-1.5-4.5c0.8-3.5-1.3-6.3-4.9-6.3c-14.5,0-29,0-43.5,0c-1.5,0-2.8,0-3.3-1.9
				C40.1,60,40.5,59.5,44.2,59.5z"/>
		</g>
	</g>
</g>
</svg>
