<?xml version="1.0" encoding="utf-8"?>
<!-- Generator: Adobe Illustrator 24.0.0, SVG Export Plug-In . SVG Version: 6.00 Build 0)  -->
<svg version="1.1" xmlns="http://www.w3.org/2000/svg" xmlns:xlink="http://www.w3.org/1999/xlink" x="0px" y="0px"
	 viewBox="0 0 105.4 104.3" style="enable-background:new 0 0 105.4 104.3;" xml:space="preserve">
<style type="text/css">
	.st0{display:none;fill:#0C1B3D;stroke:#231F20;stroke-miterlimit:10;}
	.st1{fill:#FFFFFF;}
	.st2{display:none;}
	.st3{display:inline;fill:#FFFFFF;}
	.st4{display:inline;fill:none;stroke:#0C1B3D;stroke-miterlimit:10;}
	.st5{display:inline;fill:none;stroke:#CCFF00;stroke-miterlimit:10;}
	.st6{display:inline;fill:#FFFFFF;stroke:#231F20;stroke-miterlimit:10;}
	.st7{display:inline;}
	.st8{fill:#231F20;}
	.st9{fill:#0C1B3D;}
	.st10{fill:none;stroke:#0C1B3D;stroke-width:3;stroke-miterlimit:10;}
	.st11{display:none;fill:#0C1B3D;}
	.st12{fill:#CCFF00;}
	.st13{fill:none;stroke:#0C1B3D;stroke-width:13;stroke-miterlimit:10;}
	.st14{opacity:0.3;fill:#CCFF00;}
	.st15{opacity:0.6;fill:#CCFF00;}
	.st16{display:none;fill:#CCFF00;}
	.st17{opacity:0.3;fill:#15F4EE;}
	.st18{opacity:0.6;fill:#15F4EE;}
	.st19{fill:#15F4EE;}
	.st20{opacity:0.3;}
	.st21{opacity:0.6;}
	.st22{fill:#FF00FF;stroke:#000000;stroke-width:12;stroke-linecap:round;stroke-miterlimit:10;}
	.st23{opacity:0.5;fill:#542677;}
	.st24{opacity:0.75;fill:#542677;}
	.st25{fill:#542677;}
	.st26{opacity:0.5;fill:#CCFF00;}
	.st27{fill:#0C1B3D;stroke:#CCFF00;stroke-width:3;stroke-miterlimit:10;}
	.st28{opacity:0.8;fill:#FF00FF;}
	.st29{opacity:0.9;fill:#15F4EE;}
	.st30{opacity:0.9;}
	.st31{opacity:0.8;}
	.st32{fill:#FF00FF;}
	.st33{opacity:0.5;}
</style>
<g id="Layer_1">
</g>
<g id="Layer_9" class="st2">
</g>
<g id="Layer_2" class="st2">
</g>
<g id="Layer_3" class="st2">
</g>
<g id="Layer_7">
</g>
<g id="sun">
</g>
<g id="moon">
</g>
<g id="cart">
</g>
<g id="ham">
	<g>
		<g class="st30">
			<g>
				<g>
					<line class="st19" x1="6.2" y1="48.9" x2="58.5" y2="15.2"/>
				</g>
				<g>
					<path class="st19" d="M62.4,21.3L10.1,54.9c-2.7,1.7-6.6,0.4-8.8-2.9c-2.1-3.3-1.7-7.5,1-9.2L54.6,9.2c2.7-1.7,6.6-0.4,8.8,2.9
						C65.5,15.4,65.1,19.6,62.4,21.3z"/>
				</g>
			</g>
			<g>
				<g>
					<line class="st19" x1="24.9" y1="73.1" x2="77.1" y2="39.5"/>
				</g>
				<g>
					<path class="st19" d="M81,45.5L28.8,79.2c-2.7,1.7-6.6,0.4-8.8-2.9s-1.7-7.5,1-9.2l52.2-33.6c2.7-1.7,6.6-0.4,8.8,2.9
						C84.2,39.7,83.7,43.8,81,45.5z"/>
				</g>
			</g>
			<g>
				<g>
					<line class="st19" x1="43.4" y1="97.5" x2="95.6" y2="63.8"/>
				</g>
				<g>
					<path class="st19" d="M99.5,69.9l-52.2,33.6c-2.7,1.7-6.6,0.4-8.8-2.9c-2.1-3.3-1.7-7.5,1-9.2l52.2-33.6
						c2.7-1.7,6.6-0.4,8.8,2.9C102.7,64,102.2,68.1,99.5,69.9z"/>
				</g>
			</g>
		</g>
		<g class="st30">
			<g>
				<g>
					<line class="st32" x1="9.2" y1="40.4" x2="61.4" y2="6.8"/>
				</g>
				<g>
					<path class="st32" d="M65.3,12.9L13.1,46.5c-2.7,1.7-6.6,0.4-8.8-2.9c-2.1-3.3-1.7-7.5,1-9.2L57.5,0.8c2.7-1.7,6.6-0.4,8.8,2.9
						C68.5,7,68,11.1,65.3,12.9z"/>
				</g>
			</g>
			<g>
				<g>
					<line class="st32" x1="27.8" y1="64.7" x2="80.1" y2="31.1"/>
				</g>
				<g>
					<path class="st32" d="M84,37.1L31.7,70.7c-2.7,1.7-6.6,0.4-8.8-2.9c-2.1-3.3-1.7-7.5,1-9.2L76.2,25c2.7-1.7,6.6-0.4,8.8,2.9
						C87.1,31.3,86.7,35.4,84,37.1z"/>
				</g>
			</g>
			<g>
				<g>
					<line class="st32" x1="46.3" y1="89" x2="98.6" y2="55.4"/>
				</g>
				<g>
					<path class="st32" d="M102.5,61.5L50.2,95.1c-2.7,1.7-6.6,0.4-8.8-2.9c-2.1-3.3-1.7-7.5,1-9.2l52.2-33.6
						c2.7-1.7,6.6-0.4,8.8,2.9C105.6,55.6,105.2,59.7,102.5,61.5z"/>
				</g>
			</g>
		</g>
		<g>
			<g>
				<line class="st9" x1="9.8" y1="43.4" x2="62" y2="9.7"/>
			</g>
			<g>
				<path class="st9" d="M65.9,15.8L13.7,49.4C11,51.1,7,49.8,4.9,46.5c-2.1-3.3-1.7-7.5,1-9.2L58.1,3.7c2.7-1.7,6.6-0.4,8.8,2.9
					C69,9.9,68.6,14,65.9,15.8z"/>
			</g>
		</g>
		<g>
			<g>
				<line class="st9" x1="28.4" y1="67.6" x2="80.7" y2="34"/>
			</g>
			<g>
				<path class="st9" d="M84.6,40L32.3,73.6c-2.7,1.7-6.6,0.4-8.8-2.9s-1.7-7.5,1-9.2l52.2-33.6c2.7-1.7,6.6-0.4,8.8,2.9
					C87.7,34.2,87.3,38.3,84.6,40z"/>
			</g>
		</g>
		<g>
			<g>
				<line class="st9" x1="46.9" y1="91.9" x2="99.2" y2="58.3"/>
			</g>
			<g>
				<path class="st9" d="M103.1,64.4L50.8,98c-2.7,1.7-6.6,0.4-8.8-2.9c-2.1-3.3-1.7-7.5,1-9.2l52.2-33.6c2.7-1.7,6.6-0.4,8.8,2.9
					C106.2,58.5,105.8,62.6,103.1,64.4z"/>
			</g>
		</g>
	</g>
</g>
</svg>
