<?xml version="1.0" encoding="utf-8"?>
<!-- Generator: Adobe Illustrator 24.0.0, SVG Export Plug-In . SVG Version: 6.00 Build 0)  -->
<svg version="1.1" xmlns="http://www.w3.org/2000/svg" xmlns:xlink="http://www.w3.org/1999/xlink" x="0px" y="0px"
	 viewBox="0 0 105.7 107.4" style="enable-background:new 0 0 105.7 107.4;" xml:space="preserve">
<style type="text/css">
	.st0{display:none;fill:#0C1B3D;stroke:#231F20;stroke-miterlimit:10;}
	.st1{fill:#FFFFFF;}
	.st2{display:none;}
	.st3{display:inline;fill:#FFFFFF;}
	.st4{display:inline;fill:none;stroke:#0C1B3D;stroke-miterlimit:10;}
	.st5{display:inline;fill:none;stroke:#CCFF00;stroke-miterlimit:10;}
	.st6{display:inline;fill:#FFFFFF;stroke:#231F20;stroke-miterlimit:10;}
	.st7{display:inline;}
	.st8{fill:#231F20;}
	.st9{fill:#0C1B3D;}
	.st10{fill:none;stroke:#0C1B3D;stroke-width:3;stroke-miterlimit:10;}
	.st11{display:none;fill:#0C1B3D;}
	.st12{fill:#CCFF00;}
	.st13{fill:none;stroke:#0C1B3D;stroke-width:13;stroke-miterlimit:10;}
	.st14{opacity:0.3;fill:#CCFF00;}
	.st15{opacity:0.6;fill:#CCFF00;}
	.st16{display:none;fill:#CCFF00;}
	.st17{opacity:0.3;fill:#15F4EE;}
	.st18{opacity:0.6;fill:#15F4EE;}
	.st19{fill:#15F4EE;}
	.st20{opacity:0.3;}
	.st21{opacity:0.6;}
	.st22{fill:#FF00FF;stroke:#000000;stroke-width:12;stroke-linecap:round;stroke-miterlimit:10;}
	.st23{opacity:0.5;fill:#542677;}
	.st24{opacity:0.75;fill:#542677;}
	.st25{fill:#542677;}
	.st26{opacity:0.5;fill:#CCFF00;}
	.st27{fill:#0C1B3D;stroke:#CCFF00;stroke-width:3;stroke-miterlimit:10;}
	.st28{opacity:0.8;fill:#FF00FF;}
	.st29{opacity:0.9;fill:#15F4EE;}
	.st30{opacity:0.9;}
	.st31{opacity:0.8;}
	.st32{fill:#FF00FF;}
	.st33{opacity:0.5;}
</style>
<g id="Layer_1">
</g>
<g id="Layer_9" class="st2">
</g>
<g id="Layer_2" class="st2">
</g>
<g id="Layer_3" class="st2">
</g>
<g id="Layer_7">
</g>
<g id="sun">
</g>
<g id="moon">
</g>
<g id="cart">
</g>
<g id="ham">
	<g>
		<g>
			<path class="st19" d="M51,107.4c-0.5,0-0.9,0-1.4,0C22.9,106.6,1.2,85.2,0,58.6C-1,34.5,14.5,13.4,37.7,7.1
				c3.5-0.9,7.1,0.5,9.1,3.5c1.9,3,1.7,6.9-0.5,9.7c-5.7,7-8.1,15.9-6.7,25c2.1,13.6,13,24.4,26.6,26.4c6.5,0.9,13,0,18.7-2.9
				c3.3-1.6,7.2-0.9,9.7,1.7c2.5,2.6,3.1,6.5,1.4,9.7C87.1,97.1,69.9,107.4,51,107.4z M28.7,25.6C18.6,32.9,12.5,44.9,13,58
				c0.8,19.8,17.1,35.8,36.9,36.3c9.9,0.3,19.2-3.3,26.3-9.6c-3.9,0.5-7.9,0.4-11.9-0.2l0,0c-19.2-2.8-34.7-18.1-37.6-37.3
				C25.6,39.8,26.3,32.4,28.7,25.6z"/>
		</g>
		<g class="st31">
			<path class="st32" d="M59.7,100.5c-0.5,0-0.9,0-1.4,0C31.6,99.8,9.9,78.4,8.7,51.7C7.7,27.7,23.2,6.5,46.4,0.3
				c3.5-0.9,7.1,0.5,9.1,3.5c1.9,3,1.7,6.9-0.5,9.7c-5.7,7-8.1,15.9-6.7,25c2.1,13.6,13,24.4,26.6,26.4c6.5,0.9,13,0,18.7-2.9
				c3.3-1.6,7.2-0.9,9.7,1.7c2.5,2.6,3.1,6.5,1.4,9.7C95.8,90.2,78.6,100.5,59.7,100.5z M37.4,18.7C27.2,26,21.2,38,21.7,51.2
				C22.6,71,38.8,87,58.6,87.5c9.9,0.3,19.2-3.3,26.3-9.6C81,78.4,77,78.3,73,77.7l0,0c-19.2-2.8-34.7-18.1-37.6-37.3
				C34.3,32.9,35,25.5,37.4,18.7z"/>
		</g>
		<g>
			<path class="st9" d="M54.9,101.3c-0.5,0-0.9,0-1.4,0C26.8,100.5,5,79.1,3.9,52.5C2.9,28.4,18.4,7.3,41.6,1
				c3.5-0.9,7.1,0.5,9.1,3.5c1.9,3,1.7,6.9-0.5,9.7c-5.7,7-8.1,15.9-6.7,25c2.1,13.6,13,24.4,26.6,26.4c6.5,0.9,13,0,18.7-2.9
				c3.3-1.6,7.2-0.9,9.7,1.7c2.5,2.6,3.1,6.5,1.4,9.7C91,91,73.8,101.3,54.9,101.3z M32.5,19.5c-10.1,7.3-16.2,19.3-15.6,32.5
				C17.7,71.8,34,87.7,53.8,88.2c9.9,0.3,19.2-3.3,26.3-9.6c-3.9,0.5-7.9,0.4-11.9-0.2l0,0C49,75.7,33.5,60.3,30.6,41.2
				C29.5,33.7,30.2,26.3,32.5,19.5z"/>
		</g>
	</g>
</g>
</svg>
