<?xml version="1.0" encoding="utf-8"?>
<!-- Generator: Adobe Illustrator 24.0.0, SVG Export Plug-In . SVG Version: 6.00 Build 0)  -->
<svg version="1.1" xmlns="http://www.w3.org/2000/svg" xmlns:xlink="http://www.w3.org/1999/xlink" x="0px" y="0px"
	 viewBox="0 0 84.1 113.1" style="enable-background:new 0 0 84.1 113.1;" xml:space="preserve">
<style type="text/css">
	.st0{display:none;fill:#0C1B3D;stroke:#231F20;stroke-miterlimit:10;}
	.st1{fill:#FFFFFF;}
	.st2{display:none;}
	.st3{display:inline;fill:#FFFFFF;}
	.st4{display:inline;fill:none;stroke:#0C1B3D;stroke-miterlimit:10;}
	.st5{display:inline;fill:none;stroke:#CCFF00;stroke-miterlimit:10;}
	.st6{display:inline;fill:#FFFFFF;stroke:#231F20;stroke-miterlimit:10;}
	.st7{display:inline;}
	.st8{fill:#231F20;}
	.st9{fill:#0C1B3D;}
	.st10{fill:none;stroke:#0C1B3D;stroke-width:3;stroke-miterlimit:10;}
	.st11{display:none;fill:#0C1B3D;}
	.st12{fill:#CCFF00;}
	.st13{fill:none;stroke:#0C1B3D;stroke-width:13;stroke-miterlimit:10;}
	.st14{opacity:0.3;fill:#CCFF00;}
	.st15{opacity:0.6;fill:#CCFF00;}
	.st16{display:none;fill:#CCFF00;}
	.st17{opacity:0.3;fill:#15F4EE;}
	.st18{opacity:0.6;fill:#15F4EE;}
	.st19{fill:#15F4EE;}
	.st20{opacity:0.3;}
	.st21{opacity:0.6;}
	.st22{fill:#FF00FF;stroke:#000000;stroke-width:12;stroke-linecap:round;stroke-miterlimit:10;}
	.st23{opacity:0.5;fill:#542677;}
	.st24{opacity:0.75;fill:#542677;}
	.st25{fill:#542677;}
	.st26{opacity:0.5;fill:#CCFF00;}
	.st27{fill:#0C1B3D;stroke:#CCFF00;stroke-width:3;stroke-miterlimit:10;}
	.st28{opacity:0.8;fill:#FF00FF;}
	.st29{opacity:0.9;fill:#15F4EE;}
	.st30{opacity:0.9;}
	.st31{opacity:0.8;}
	.st32{fill:#FF00FF;}
	.st33{opacity:0.5;}
</style>
<g id="Layer_1">
</g>
<g id="Layer_9" class="st2">
</g>
<g id="Layer_2" class="st2">
</g>
<g id="Layer_3" class="st2">
</g>
<g id="Layer_7">
</g>
<g id="sun">
</g>
<g id="moon">
</g>
<g id="cart">
</g>
<g id="ham">
	<g>
		<g class="st30">
			<path class="st19" d="M0,17.9v42.7v42.7c0,7.6,6.4,12.3,11.5,8.5l28.9-21.4l28.9-21.4c5.1-3.8,5.1-13.3,0-17L40.5,30.7L11.5,9.3
				C6.4,5.5,0,10.3,0,17.9z M20.2,33.2l32.9,24.3c2.1,1.5,2.1,4.6,0,6.2L20.2,87.9c-2.5,1.9-6.1,0.1-6.1-3.1V36.3
				C14.1,33.2,17.7,31.4,20.2,33.2z"/>
		</g>
		<g class="st31">
			<path class="st32" d="M10.9,9.9v42.7v42.7c0,7.6,6.4,12.3,11.5,8.5l28.9-21.4l28.9-21.4c5.1-3.8,5.1-13.3,0-17L51.4,22.7
				L22.4,1.3C17.3-2.5,10.9,2.3,10.9,9.9z M31.1,25.2l32.9,24.3c2.1,1.5,2.1,4.6,0,6.2L31.1,79.9C28.6,81.8,25,80,25,76.8V28.3
				C25,25.2,28.6,23.4,31.1,25.2z"/>
		</g>
		<g>
			<path class="st9" d="M6.8,12.9v42.7v42.7c0,7.6,6.4,12.3,11.5,8.5l28.9-21.4l28.9-21.4c5.1-3.8,5.1-13.3,0-17L47.3,25.7L18.3,4.3
				C13.2,0.5,6.8,5.3,6.8,12.9z M27,28.2l32.9,24.3c2.1,1.5,2.1,4.6,0,6.2L27,82.9c-2.5,1.9-6.1,0.1-6.1-3.1V31.3
				C20.9,28.2,24.4,26.4,27,28.2z"/>
		</g>
	</g>
</g>
</svg>
