<?xml version="1.0" encoding="utf-8"?>
<!-- Generator: Adobe Illustrator 24.0.0, SVG Export Plug-In . SVG Version: 6.00 Build 0)  -->
<svg version="1.1" id="Capa_1" xmlns="http://www.w3.org/2000/svg" xmlns:xlink="http://www.w3.org/1999/xlink" x="0px" y="0px"
	 viewBox="0 0 510 510" style="enable-background:new 0 0 510 510;" xml:space="preserve">
<style type="text/css">
	.st0{display:none;}
	.st1{display:inline;}
	.st2{fill:#0C1B3D;}
	.st3{fill:none;}
	.st4{fill:#FFFFFF;}
	.st5{fill:#15F4EE;}
</style>
<g class="st0">
	<g id="post-twitter" class="st1">
		<path class="st2" d="M459,0H51C23,0,0,23,0,51v408c0,28,23,51,51,51h408c28,0,51-23,51-51V51C510,23,487,0,459,0z M400.4,186.1
			c-2.5,117.3-76.5,198.9-188.7,204c-45.9,2.6-79.1-12.8-109.7-30.6c33.1,5.1,76.5-7.6,99.4-28c-33.2-2.5-53.6-20.4-63.8-48.5
			c10.2,2.5,20.4,0,28.1,0c-30.6-10.2-51-28.1-53.6-68.9c7.7,5.1,17.9,7.6,28.1,7.6c-22.9-12.8-38.2-61.2-20.4-91.8
			c33.2,35.7,73.9,66.3,140.2,71.4c-17.9-71.4,79.1-109.7,117.3-61.2c17.9-2.6,30.6-10.2,43.4-15.3c-5.1,17.9-15.3,28.1-28,38.2
			c12.8-2.6,25.5-5.1,35.7-10.2C425.9,165.8,413.1,175.9,400.4,186.1z"/>
	</g>
</g>
<path class="st3" d="M420.8,124.9c-12.8,5.1-25.5,12.8-43.4,15.3c-38.2-48.5-135.2-10.2-117.3,61.2c-66.3-5.1-107.1-35.7-140.3-71.4
	c-17.8,30.6-2.5,79,20.4,91.8c-10.2,0-20.4-2.5-28-7.7c2.5,40.8,23,58.7,53.5,68.9c-7.7,0-17.8,2.5-28,0
	c10.2,28,30.6,45.9,63.8,48.5c-23,20.4-66.3,33.2-99.5,28c30.6,17.8,63.8,33.2,109.7,30.6c112.2-5.1,186.2-86.7,188.7-204
	c12.8-10.2,25.5-20.4,28.1-33.1c-10.2,5.1-23,7.6-35.7,10.2C405.5,153,415.7,142.8,420.8,124.9z"/>
<rect x="78" y="70" class="st2" width="367.1" height="346.5"/>
<path class="st4" d="M451.4,106.4c-4-10.9-10.5-20.8-18.8-29c-8.1-8.4-18-14.8-29-18.8c-8.9-3.5-22.2-7.6-46.8-8.7
	c-26.6-1.2-34.5-1.5-101.8-1.5l0,0c-67.3,0-75.2,0.3-101.8,1.5c-24.6,1.1-37.9,5.2-46.8,8.7c-10.9,4-20.8,10.5-29,18.8
	c-8.4,8.1-14.8,18-18.8,29c-3.5,8.9-7.6,22.2-8.7,46.8c-1.2,26.6-1.5,34.5-1.5,101.8s0.3,75.2,1.5,101.8c1.1,24.6,5.2,37.9,8.7,46.8
	c4,10.9,10.5,20.8,18.8,29c8.1,8.4,18,14.8,29,18.8c8.9,3.4,22.2,7.6,46.8,8.7c26.6,1.2,34.5,1.5,101.8,1.5s75.2-0.3,101.8-1.5
	c24.6-1.1,37.9-5.2,46.8-8.7c22-8.5,39.3-25.8,47.8-47.8c3.4-8.9,7.6-22.2,8.7-46.8c1.2-26.6,1.5-34.5,1.5-101.8
	s-0.3-75.2-1.5-101.8C458.9,128.6,454.8,115.3,451.4,106.4z M400.4,186.1c-2.5,117.3-76.5,198.9-188.7,204
	c-45.9,2.6-79-12.8-109.7-30.6c33.2,5.1,76.5-7.6,99.5-28c-33.2-2.5-53.5-20.4-63.8-48.5c10.2,2.5,20.4,0,28,0
	c-30.6-10.2-51-28-53.5-68.9c7.6,5.1,17.8,7.7,28,7.7c-23-12.8-38.2-61.2-20.4-91.8c33.2,35.7,74,66.3,140.3,71.4
	c-17.9-71.4,79.1-109.6,117.3-61.2c17.9-2.6,30.6-10.2,43.4-15.3c-5.1,17.9-15.3,28.1-28,38.2c12.8-2.5,25.5-5.1,35.7-10.2
	C425.9,165.8,413.1,176,400.4,186.1z"/>
<path class="st2" d="M493.7,90c-6.3-16.8-16.2-32-29.1-44.6c-12.6-12.8-27.8-22.7-44.6-29.1c-16-6.2-34.3-10.5-61.2-11.7
	C332,3.4,323.4,3.1,255,3.1s-77,0.3-103.9,1.5C124.3,5.8,106,10.1,90,16.3c-16.8,6.3-32,16.2-44.6,29.1C32.5,57.9,22.6,73.2,16.3,90
	c-6.2,16-10.5,34.3-11.7,61.2C3.4,178,3.1,186.6,3.1,255s0.3,77,1.5,103.9c1.2,26.8,5.5,45.1,11.7,61.2c6.3,16.8,16.2,32,29.1,44.6
	c12.6,12.8,27.8,22.7,44.6,29.1c16,6.2,34.3,10.5,61.2,11.7c26.9,1.2,35.4,1.5,103.9,1.5s77-0.3,103.9-1.5
	c26.8-1.2,45.1-5.5,61.2-11.7c33.8-13.1,60.6-39.8,73.7-73.7c6.2-16,10.5-34.3,11.7-61.2c1.2-26.9,1.5-35.4,1.5-103.9
	s-0.3-77-1.5-103.9C504.2,124.3,499.9,106,493.7,90z M460.1,356.8c-1.1,24.6-5.2,37.9-8.7,46.8c-8.5,22-25.8,39.3-47.8,47.8
	c-8.9,3.5-22.2,7.6-46.8,8.7c-26.6,1.2-34.5,1.5-101.8,1.5s-75.2-0.3-101.8-1.5c-24.6-1.1-37.9-5.2-46.8-8.7
	c-10.9-4-20.8-10.5-29-18.8c-8.4-8.1-14.8-18-18.8-29c-3.5-8.9-7.6-22.2-8.7-46.8c-1.2-26.6-1.5-34.5-1.5-101.8s0.3-75.2,1.5-101.8
	c1.1-24.6,5.2-37.9,8.7-46.8c4-10.9,10.5-20.8,18.8-29c8.1-8.4,18-14.8,29-18.8c8.9-3.5,22.2-7.6,46.8-8.7
	c26.6-1.2,34.5-1.5,101.8-1.5l0,0c67.3,0,75.2,0.3,101.8,1.5c24.6,1.1,37.9,5.2,46.8,8.7c10.9,4,20.8,10.5,29,18.8
	c8.4,8.1,14.8,18,18.8,29c3.5,8.9,7.6,22.2,8.7,46.8c1.2,26.6,1.5,34.5,1.5,101.8S461.3,330.2,460.1,356.8z"/>
<polygon class="st5" points="255,3.1 255,3.1 255,3.1 "/>
</svg>
