<?xml version="1.0" encoding="utf-8"?>
<!-- Generator: Adobe Illustrator 24.0.0, SVG Export Plug-In . SVG Version: 6.00 Build 0)  -->
<svg version="1.1" xmlns="http://www.w3.org/2000/svg" xmlns:xlink="http://www.w3.org/1999/xlink" x="0px" y="0px"
	 viewBox="0 0 116.1 82.1" style="enable-background:new 0 0 116.1 82.1;" xml:space="preserve">
<style type="text/css">
	.st0{display:none;fill:#0C1B3D;stroke:#231F20;stroke-miterlimit:10;}
	.st1{fill:#FFFFFF;}
	.st2{display:none;}
	.st3{display:inline;fill:#FFFFFF;}
	.st4{display:inline;fill:none;stroke:#0C1B3D;stroke-miterlimit:10;}
	.st5{display:inline;fill:none;stroke:#CCFF00;stroke-miterlimit:10;}
	.st6{display:inline;fill:#FFFFFF;stroke:#231F20;stroke-miterlimit:10;}
	.st7{display:inline;}
	.st8{fill:#231F20;}
	.st9{fill:#0C1B3D;}
	.st10{fill:none;stroke:#0C1B3D;stroke-width:3;stroke-miterlimit:10;}
	.st11{display:none;fill:#0C1B3D;}
	.st12{fill:#CCFF00;}
	.st13{fill:none;stroke:#0C1B3D;stroke-width:13;stroke-miterlimit:10;}
	.st14{opacity:0.3;fill:#CCFF00;}
	.st15{opacity:0.6;fill:#CCFF00;}
	.st16{display:none;fill:#CCFF00;}
	.st17{opacity:0.3;fill:#15F4EE;}
	.st18{opacity:0.6;fill:#15F4EE;}
	.st19{fill:#15F4EE;}
	.st20{opacity:0.3;}
	.st21{opacity:0.6;}
	.st22{fill:#FF00FF;stroke:#000000;stroke-width:12;stroke-linecap:round;stroke-miterlimit:10;}
	.st23{opacity:0.5;fill:#542677;}
	.st24{opacity:0.75;fill:#542677;}
	.st25{fill:#542677;}
	.st26{opacity:0.5;fill:#CCFF00;}
	.st27{fill:#0C1B3D;stroke:#CCFF00;stroke-width:3;stroke-miterlimit:10;}
	.st28{opacity:0.8;fill:#FF00FF;}
	.st29{opacity:0.9;fill:#15F4EE;}
	.st30{opacity:0.9;}
	.st31{opacity:0.8;}
	.st32{fill:#FF00FF;}
	.st33{opacity:0.5;}
</style>
<g id="Layer_1">
</g>
<g id="Layer_9" class="st2">
</g>
<g id="Layer_2" class="st2">
</g>
<g id="Layer_3" class="st2">
</g>
<g id="Layer_7">
</g>
<g id="sun">
</g>
<g id="moon">
</g>
<g id="cart">
</g>
<g id="ham">
	<g>
		<g class="st30">
			<path class="st19" d="M9.9,82.1h42.7h42.7c7.6,0,12.3-6.4,8.5-11.5L82.4,41.7L61.1,12.7c-3.8-5.1-13.3-5.1-17,0L22.7,41.7
				L1.3,70.6C-2.5,75.7,2.3,82.1,9.9,82.1z M25.2,62l24.3-32.9c1.5-2.1,4.6-2.1,6.2,0L79.9,62c1.9,2.5,0.1,6.1-3.1,6.1H28.3
				C25.2,68.1,23.4,64.5,25.2,62z"/>
		</g>
		<g class="st31">
			<path class="st32" d="M20.9,73.3h42.7h42.7c7.6,0,12.3-6.4,8.5-11.5L93.4,32.8L72.1,3.8c-3.8-5.1-13.3-5.1-17,0L33.7,32.8
				L12.3,61.7C8.5,66.8,13.3,73.3,20.9,73.3z M36.2,53.1l24.3-32.9c1.5-2.1,4.6-2.1,6.2,0l24.3,32.9c1.9,2.5,0.1,6.1-3.1,6.1H39.3
				C36.2,59.2,34.4,55.6,36.2,53.1z"/>
		</g>
		<g>
			<path class="st9" d="M17.9,77.4h42.7h42.7c7.6,0,12.3-6.4,8.5-11.5L90.4,36.9L69.1,8c-3.8-5.1-13.3-5.1-17,0L30.7,36.9L9.3,65.8
				C5.5,70.9,10.3,77.4,17.9,77.4z M33.2,57.2l24.3-32.9c1.5-2.1,4.6-2.1,6.2,0l24.3,32.9c1.9,2.5,0.1,6.1-3.1,6.1H36.3
				C33.2,63.3,31.4,59.7,33.2,57.2z"/>
		</g>
	</g>
</g>
</svg>
