<?xml version="1.0" encoding="utf-8"?>
<!-- Generator: Adobe Illustrator 24.0.0, SVG Export Plug-In . SVG Version: 6.00 Build 0)  -->
<svg version="1.1" xmlns="http://www.w3.org/2000/svg" xmlns:xlink="http://www.w3.org/1999/xlink" x="0px" y="0px"
	 viewBox="0 0 91.7 95.2" style="enable-background:new 0 0 91.7 95.2;" xml:space="preserve">
<style type="text/css">
	.st0{display:none;fill:#0C1B3D;stroke:#231F20;stroke-miterlimit:10;}
	.st1{fill:#FFFFFF;}
	.st2{display:none;}
	.st3{display:inline;fill:#FFFFFF;}
	.st4{display:inline;fill:none;stroke:#0C1B3D;stroke-miterlimit:10;}
	.st5{display:inline;fill:none;stroke:#CCFF00;stroke-miterlimit:10;}
	.st6{display:inline;fill:#FFFFFF;stroke:#231F20;stroke-miterlimit:10;}
	.st7{display:inline;}
	.st8{fill:#231F20;}
	.st9{fill:#0C1B3D;}
	.st10{fill:none;stroke:#0C1B3D;stroke-width:3;stroke-miterlimit:10;}
	.st11{display:none;fill:#0C1B3D;}
	.st12{fill:#CCFF00;}
	.st13{fill:none;stroke:#0C1B3D;stroke-width:13;stroke-miterlimit:10;}
	.st14{opacity:0.3;fill:#CCFF00;}
	.st15{opacity:0.6;fill:#CCFF00;}
	.st16{display:none;fill:#CCFF00;}
	.st17{opacity:0.3;fill:#15F4EE;}
	.st18{opacity:0.6;fill:#15F4EE;}
	.st19{fill:#15F4EE;}
	.st20{opacity:0.3;}
	.st21{opacity:0.6;}
	.st22{fill:#FF00FF;stroke:#000000;stroke-width:12;stroke-linecap:round;stroke-miterlimit:10;}
	.st23{opacity:0.5;fill:#542677;}
	.st24{opacity:0.75;fill:#542677;}
	.st25{fill:#542677;}
	.st26{opacity:0.5;fill:#CCFF00;}
	.st27{fill:#0C1B3D;stroke:#CCFF00;stroke-width:3;stroke-miterlimit:10;}
	.st28{opacity:0.8;fill:#FF00FF;}
	.st29{opacity:0.9;fill:#15F4EE;}
	.st30{opacity:0.9;}
	.st31{opacity:0.8;}
	.st32{fill:#FF00FF;}
	.st33{opacity:0.5;}
</style>
<g id="Layer_1">
</g>
<g id="Layer_9" class="st2">
</g>
<g id="Layer_2" class="st2">
</g>
<g id="Layer_3" class="st2">
</g>
<g id="Layer_7">
</g>
<g id="sun">
</g>
<g id="moon">
</g>
<g id="cart">
</g>
<g id="ham">
	<g>
		<g>
			<g class="st30">
				<g>
					<line class="st19" x1="29.8" y1="16.6" x2="63.1" y2="87.9"/>
				</g>
				<g>
					<path class="st19" d="M56.4,91L23.2,19.8c-1.7-3.7-0.1-8.1,3.6-9.8s8.1-0.1,9.8,3.6l33.3,71.2c1.7,3.7,0.1,8.1-3.6,9.8
						C62.5,96.2,58.2,94.7,56.4,91z"/>
				</g>
			</g>
			<g class="st30">
				<g>
					<line class="st19" x1="7.4" y1="65.4" x2="78.6" y2="32.2"/>
				</g>
				<g>
					<path class="st19" d="M81.7,38.8L10.5,72.1c-3.7,1.7-8.1,0.1-9.8-3.6c-1.7-3.7-0.1-8.1,3.6-9.8l71.2-33.3
						c3.7-1.7,8.1-0.1,9.8,3.6C87,32.7,85.4,37.1,81.7,38.8z"/>
				</g>
			</g>
		</g>
		<g>
			<g class="st31">
				<g>
					<line class="st32" x1="35.6" y1="7.4" x2="68.9" y2="78.6"/>
				</g>
				<g>
					<path class="st32" d="M62.2,81.7L28.9,10.5c-1.7-3.7-0.1-8.1,3.6-9.8s8.1-0.1,9.8,3.6l33.3,71.2c1.7,3.7,0.1,8.1-3.6,9.8
						C68.3,87,63.9,85.4,62.2,81.7z"/>
				</g>
			</g>
			<g class="st31">
				<g>
					<line class="st32" x1="13.1" y1="56.2" x2="84.3" y2="22.9"/>
				</g>
				<g>
					<path class="st32" d="M87.4,29.5L16.2,62.8c-3.7,1.7-8.1,0.1-9.8-3.6s-0.1-8.1,3.6-9.8l71.2-33.3c3.7-1.7,8.1-0.1,9.8,3.6
						C92.7,23.4,91.1,27.8,87.4,29.5z"/>
				</g>
			</g>
		</g>
		<g>
			<g>
				<line class="st9" x1="33.3" y1="11.4" x2="66.6" y2="82.6"/>
			</g>
			<g>
				<path class="st9" d="M59.9,85.7L26.6,14.5c-1.7-3.7-0.1-8.1,3.6-9.8s8.1-0.1,9.8,3.6l33.3,71.2c1.7,3.7,0.1,8.1-3.6,9.8
					C66,91,61.6,89.4,59.9,85.7z"/>
			</g>
		</g>
		<g>
			<g>
				<line class="st9" x1="10.8" y1="60.2" x2="82" y2="26.9"/>
			</g>
			<g>
				<path class="st9" d="M85.2,33.6L13.9,66.9c-3.7,1.7-8.1,0.1-9.8-3.6c-1.7-3.7-0.1-8.1,3.6-9.8l71.2-33.3
					c3.7-1.7,8.1-0.1,9.8,3.6C90.4,27.5,88.8,31.9,85.2,33.6z"/>
			</g>
		</g>
	</g>
</g>
</svg>
