<?xml version="1.0" encoding="utf-8"?>
<!-- Generator: Adobe Illustrator 24.0.0, SVG Export Plug-In . SVG Version: 6.00 Build 0)  -->
<svg version="1.1" id="Layer_1" xmlns="http://www.w3.org/2000/svg" xmlns:xlink="http://www.w3.org/1999/xlink" x="0px" y="0px"
	 viewBox="0 0 506.3 488.3" style="enable-background:new 0 0 506.3 488.3;" xml:space="preserve">
<style type="text/css">
	.st0{fill:#15F4EE;}
	.st1{fill:#FF00FF;}
	.st2{fill:#CCFF00;}
	.st3{fill:#0C1B3D;stroke:#0C1B3D;stroke-miterlimit:10;}
</style>
<title>logo-noword-techamory</title>
<polygon class="st0" points="326.2,185 373.4,185 373.4,164.1 346.5,164.1 "/>
<polygon class="st1" points="412.1,96.8 391.2,118.2 391.2,149.8 412.1,149.8 "/>
<polygon class="st0" points="184.6,330.5 166.8,348.8 166.8,438.8 254.5,438.8 254.5,417.9 184.6,417.9 "/>
<polygon class="st1" points="272.3,403.6 293.2,403.6 293.2,218.9 272.3,240.4 "/>
<polygon class="st0" points="17.8,170.6 17.8,103.8 0,103.8 0,191.6 135.4,191.6 135.4,216.9 153.2,170.6 "/>
<polygon class="st1" points="115.2,76.8 189.3,76.8 192.5,68.6 174.1,68.6 38.7,68.6 38.7,82.9 115.2,82.9 "/>
<polygon class="st1" points="187,82.9 189.3,76.8 115.2,76.8 115.2,82.9 153.2,82.9 "/>
<polygon class="st2" points="391.7,83 391.7,117.7 506.3,0 218.9,0 186.9,83 256.4,83 "/>
<polygon class="st2" points="256.4,256.8 305.8,205.9 256.4,205.9 "/>
<polygon class="st2" points="31,488.3 129.9,386.7 129.9,231.3 "/>
<polygon class="st0" points="256.4,185 256.4,205.9 305.8,205.9 326.2,185 "/>
<polygon class="st0" points="147.7,185 147.7,185 129.9,231.3 129.9,386.7 147.7,368.4 "/>
<polygon class="st1" points="235.4,205.9 235.4,278.2 256.4,256.8 256.4,205.9 "/>
<polygon class="st1" points="379.2,91.2 379.2,112.1 370.8,112.1 370.8,139.1 391.7,117.7 391.7,83 256.4,83 186.9,83 183.8,91.2 
	"/>
<rect x="235.4" y="185" class="st0" width="20.9" height="20.9"/>
<rect x="235.4" y="185" class="st2" width="20.9" height="20.9"/>
<polygon class="st1" points="235.4,97.3 370.8,97.3 370.8,112.1 379.2,112.1 379.2,91.2 183.8,91.2 181.4,97.3 "/>
<polygon class="st3" points="158.7,156.4 178.9,103.8 181.3,97.7 187,82.9 153.2,82.9 115.2,82.9 38.7,82.9 17.8,82.9 17.8,103.8 
	17.8,170.6 153.2,170.6 "/>
<polygon class="st3" points="373.4,136.6 360.4,149.8 346.5,164.1 373.4,164.1 373.4,164.1 391.2,164.1 391.2,149.8 391.2,149.8 
	391.2,118.2 "/>
<g>
	<polygon class="st3" points="205.5,309 184.6,330.5 184.6,417.9 254.5,417.9 254.5,417.9 272.3,417.9 272.3,403.6 272.3,240.4 
		254.5,258.7 	"/>
	<polygon class="st3" points="235.4,97.3 181.5,97.3 175.8,112.1 173.4,118.2 153.2,170.7 147.7,185 147.7,185 147.7,368.4 
		168.6,346.9 217.6,296.5 235.4,278.2 235.4,205.9 235.4,185 256.4,185 326.2,185 340.1,170.7 353,157.4 370.8,139.1 370.8,112.1 
		370.8,97.3 	"/>
</g>
</svg>
